<svg xmlns="http://www.w3.org/2000/svg" xmlns:xlink="http://www.w3.org/1999/xlink" contentStyleType="text/css" data-diagram-type="DESCRIPTION" height="1473px" preserveAspectRatio="none" style="width:803px;height:1473px;background:#FFFFFF;" version="1.1" viewBox="0 0 803 1473" width="803px" zoomAndPan="magnify"><defs/><g><!--entity Client--><g id="elem_Client"><ellipse cx="100.7651" cy="1097.5" fill="#F1F1F1" rx="8" ry="8" style="stroke:#181818;stroke-width:0.5;"/><path d="M100.7651,1105.5 L100.7651,1132.5 M87.7651,1113.5 L113.7651,1113.5 M100.7651,1132.5 L87.7651,1147.5 M100.7651,1132.5 L113.7651,1147.5 " fill="transparent" style="stroke:#181818;stroke-width:0.5;"/><text fill="#000000" font-family="sans-serif" font-size="14" lengthAdjust="spacing" textLength="40.5303" x="80.5" y="1161.9951">Client</text></g><!--entity Admin--><g id="elem_Admin"><ellipse cx="100.9321" cy="583.5" fill="#F1F1F1" rx="8" ry="8" style="stroke:#181818;stroke-width:0.5;"/><path d="M100.9321,591.5 L100.9321,618.5 M87.9321,599.5 L113.9321,599.5 M100.9321,618.5 L87.9321,633.5 M100.9321,618.5 L113.9321,633.5 " fill="transparent" style="stroke:#181818;stroke-width:0.5;"/><text fill="#000000" font-family="sans-serif" font-size="14" lengthAdjust="spacing" textLength="44.8643" x="78.5" y="647.9951">Admin</text></g><g id="elem_UC1"><ellipse cx="390.3044" cy="909.8609" fill="#F1F1F1" rx="79.8044" ry="18.3609" style="stroke:#181818;stroke-width:0.5;"/><text fill="#000000" font-family="sans-serif" font-size="14" lengthAdjust="spacing" textLength="118.0498" x="329.539" y="913.2631">Cr&#233;er un compte</text></g><g id="elem_UC2"><ellipse cx="726.657" cy="796.0314" fill="#F1F1F1" rx="70.657" ry="16.5314" style="stroke:#181818;stroke-width:0.5;"/><text fill="#000000" font-family="sans-serif" font-size="14" lengthAdjust="spacing" textLength="94.6025" x="676.3557" y="799.779">S'authentifier</text></g><g id="elem_UC3"><ellipse cx="390.2559" cy="1055.1512" fill="#F1F1F1" rx="86.2559" ry="19.6512" style="stroke:#181818;stroke-width:0.5;"/><text fill="#000000" font-family="sans-serif" font-size="14" lengthAdjust="spacing" textLength="133.2119" x="323.65" y="1057.9979">Rechercher un film</text></g><g id="elem_UC4"><ellipse cx="390.6361" cy="1127.0272" fill="#F1F1F1" rx="73.1361" ry="17.0272" style="stroke:#181818;stroke-width:0.5;"/><text fill="#000000" font-family="sans-serif" font-size="14" lengthAdjust="spacing" textLength="101.1787" x="337.0467" y="1130.7748">Lister les films</text></g><g id="elem_UC5"><ellipse cx="390.2923" cy="1198.8585" fill="#F1F1F1" rx="87.2923" ry="19.8585" style="stroke:#181818;stroke-width:0.5;"/><text fill="#000000" font-family="sans-serif" font-size="14" lengthAdjust="spacing" textLength="135.584" x="322.5003" y="1201.7051">R&#233;server une place</text></g><g id="elem_UC6"><ellipse cx="390.5881" cy="1276.2176" fill="#F1F1F1" rx="96.5881" ry="21.7176" style="stroke:#181818;stroke-width:0.5;"/><text fill="#000000" font-family="sans-serif" font-size="14" lengthAdjust="spacing" textLength="156.5088" x="312.3337" y="1279.0643">Payer (carte bancaire)</text></g><g id="elem_UC7"><ellipse cx="390.6239" cy="1353.1248" fill="#F1F1F1" rx="88.6239" ry="20.1248" style="stroke:#181818;stroke-width:0.5;"/><text fill="#000000" font-family="sans-serif" font-size="14" lengthAdjust="spacing" textLength="138.6191" x="321.3144" y="1355.9715">Annuler r&#233;servation</text></g><g id="elem_UC8"><ellipse cx="390.3909" cy="1437.7782" fill="#F1F1F1" rx="134.3909" ry="29.2782" style="stroke:#181818;stroke-width:0.5;"/><text fill="#000000" font-family="sans-serif" font-size="14" lengthAdjust="spacing" textLength="237.8291" x="271.4764" y="1440.6249">Ajouter un film &#224; la liste To Watch</text></g><g id="elem_UC9"><ellipse cx="390.6255" cy="347.2251" fill="#F1F1F1" rx="74.1255" ry="17.2251" style="stroke:#181818;stroke-width:0.5;"/><text fill="#000000" font-family="sans-serif" font-size="14" lengthAdjust="spacing" textLength="103.7559" x="335.7476" y="350.9727">Ajouter un film</text></g><g id="elem_UC10"><ellipse cx="390.514" cy="424.2028" fill="#F1F1F1" rx="111.514" ry="24.7028" style="stroke:#181818;stroke-width:0.5;"/><text fill="#000000" font-family="sans-serif" font-size="14" lengthAdjust="spacing" textLength="189.1504" x="295.9388" y="427.0495">Affecter un film &#224; une salle</text></g><g id="elem_UC11"><ellipse cx="390.4029" cy="501.8806" fill="#F1F1F1" rx="79.9029" ry="18.3806" style="stroke:#181818;stroke-width:0.5;"/><text fill="#000000" font-family="sans-serif" font-size="14" lengthAdjust="spacing" textLength="118.2891" x="329.5553" y="505.2719">Ajouter une salle</text></g><g id="elem_UC12"><ellipse cx="390.5453" cy="575.8091" fill="#F1F1F1" rx="89.5453" ry="20.3091" style="stroke:#181818;stroke-width:0.5;"/><text fill="#000000" font-family="sans-serif" font-size="14" lengthAdjust="spacing" textLength="140.7109" x="320.1898" y="578.6557">Supprimer une salle</text></g><g id="elem_UC13"><ellipse cx="390.5709" cy="657.8142" fill="#F1F1F1" rx="119.5709" ry="26.3142" style="stroke:#181818;stroke-width:0.5;"/><text fill="#000000" font-family="sans-serif" font-size="14" lengthAdjust="spacing" textLength="206.4385" x="287.3516" y="660.6609">Supprimer un film d'une salle</text></g><g id="elem_UC14"><ellipse cx="390.2612" cy="744.7522" fill="#F1F1F1" rx="111.7612" ry="24.7522" style="stroke:#181818;stroke-width:0.5;"/><text fill="#000000" font-family="sans-serif" font-size="14" lengthAdjust="spacing" textLength="189.6836" x="295.4194" y="747.5989">Ajouter une place r&#233;serv&#233;e</text></g><g id="elem_UC15"><ellipse cx="390.3365" cy="831.1673" fill="#F1F1F1" rx="116.3365" ry="25.6673" style="stroke:#181818;stroke-width:0.5;"/><text fill="#000000" font-family="sans-serif" font-size="14" lengthAdjust="spacing" textLength="199.5205" x="290.5762" y="834.014">Rendre une place disponible</text></g><g id="elem_UC16"><ellipse cx="390.3157" cy="193.0631" fill="#F1F1F1" rx="93.3157" ry="21.0631" style="stroke:#181818;stroke-width:0.5;"/><text fill="#000000" font-family="sans-serif" font-size="14" lengthAdjust="spacing" textLength="149.208" x="315.7117" y="195.9098">Traiter les paiements</text></g><g id="elem_UC17"><ellipse cx="390.5953" cy="271.9191" fill="#F1F1F1" rx="100.0953" ry="22.4191" style="stroke:#181818;stroke-width:0.5;"/><text fill="#000000" font-family="sans-serif" font-size="14" lengthAdjust="spacing" textLength="164.2676" x="308.4615" y="274.7657">Valider les transactions</text></g><g id="elem_UC18"><ellipse cx="390.287" cy="25.7574" fill="#F1F1F1" rx="86.787" ry="19.7574" style="stroke:#181818;stroke-width:0.5;"/><text fill="#000000" font-family="sans-serif" font-size="14" lengthAdjust="spacing" textLength="134.4287" x="323.0727" y="28.6041">Notifier l'utilisateur</text></g><g id="elem_UC19"><ellipse cx="390.37" cy="109.174" fill="#F1F1F1" rx="128.87" ry="28.174" style="stroke:#181818;stroke-width:0.5;"/><text fill="#000000" font-family="sans-serif" font-size="14" lengthAdjust="spacing" textLength="226.1875" x="277.2762" y="112.0207">Envoyer des rappels de s&#233;ances</text></g><!--entity PaymentSystem--><g id="elem_PaymentSystem"><rect fill="#F1F1F1" height="36.2969" rx="2.5" ry="2.5" style="stroke:#181818;stroke-width:0.5;" width="173.3574" x="14.5" y="215"/><text fill="#000000" font-family="sans-serif" font-size="14" lengthAdjust="spacing" textLength="153.3574" x="24.5" y="237.9951">Syst&#232;me de Paiement</text></g><!--entity NotificationSystem--><g id="elem_NotificationSystem"><rect fill="#F1F1F1" height="36.2969" rx="2.5" ry="2.5" style="stroke:#181818;stroke-width:0.5;" width="187.5488" x="7" y="50"/><text fill="#000000" font-family="sans-serif" font-size="14" lengthAdjust="spacing" textLength="167.5488" x="17" y="72.9951">Syst&#232;me de Notification</text></g><!--link Client to UC1--><g id="link_Client_UC1"><path d="M119.74,1088.85 C139.86,1049.77 176.29,990.04 225,956 C252.83,936.55 282.7967,926.5264 313.9267,920.0264 " fill="transparent" id="Client-to-UC1" style="stroke:#181818;stroke-width:1;"/><polygon fill="#181818" points="319.8,918.8,310.1724,916.724,314.9056,919.822,311.8076,924.5551,319.8,918.8" style="stroke:#181818;stroke-width:1;"/></g><!--link Client to UC2--><g id="link_Client_UC2"><path d="M121.95,1109.3 C149.99,1085.31 203.51,1042.63 256,1018 C368.04,965.43 413.66,1000.05 525,946 C600.48,909.36 671.7315,846.8123 704.3815,816.2223 " fill="transparent" id="Client-to-UC2" style="stroke:#181818;stroke-width:1;"/><polygon fill="#181818" points="708.76,812.12,699.4574,815.3544,705.1112,815.5386,704.9271,821.1924,708.76,812.12" style="stroke:#181818;stroke-width:1;"/></g><!--link Client to UC3--><g id="link_Client_UC3"><path d="M121.76,1122.05 C164.51,1111.34 261.1597,1087.1375 326.2097,1070.8475 " fill="transparent" id="Client-to-UC3" style="stroke:#181818;stroke-width:1;"/><polygon fill="#181818" points="332.03,1069.39,322.3279,1067.6961,327.1798,1070.6046,324.2713,1075.4565,332.03,1069.39" style="stroke:#181818;stroke-width:1;"/></g><!--link Client to UC4--><g id="link_Client_UC4"><path d="M121.76,1127 C161.41,1127 246.4,1127 311.29,1127 " fill="transparent" id="Client-to-UC4" style="stroke:#181818;stroke-width:1;"/><polygon fill="#181818" points="317.29,1127,308.29,1123,312.29,1127,308.29,1131,317.29,1127" style="stroke:#181818;stroke-width:1;"/></g><!--link Client to UC5--><g id="link_Client_UC5"><path d="M121.76,1131.95 C164.26,1142.59 259.9499,1166.5518 325.0499,1182.8618 " fill="transparent" id="Client-to-UC5" style="stroke:#181818;stroke-width:1;"/><polygon fill="#181818" points="330.87,1184.32,323.1119,1178.2527,326.0199,1183.1049,321.1677,1186.0128,330.87,1184.32" style="stroke:#181818;stroke-width:1;"/></g><!--link Client to UC6--><g id="link_Client_UC6"><path d="M121.53,1144.3 C149.49,1168.25 203.4,1211.44 256,1237 C276.52,1246.97 294.3117,1253.2739 315.8717,1259.3039 " fill="transparent" id="Client-to-UC6" style="stroke:#181818;stroke-width:1;"/><polygon fill="#181818" points="321.65,1260.92,314.06,1254.6437,316.8348,1259.5733,311.9052,1262.348,321.65,1260.92" style="stroke:#181818;stroke-width:1;"/></g><!--link Client to UC7--><g id="link_Client_UC7"><path d="M121.71,1162.32 C147.24,1204.83 195.69,1275.41 256,1315 C274.63,1327.23 291.4331,1334.042 312.7031,1339.722 " fill="transparent" id="Client-to-UC7" style="stroke:#181818;stroke-width:1;"/><polygon fill="#181818" points="318.5,1341.27,310.8367,1335.0834,313.6693,1339.98,308.7727,1342.8126,318.5,1341.27" style="stroke:#181818;stroke-width:1;"/></g><!--link Client to UC8--><g id="link_Client_UC8"><path d="M114.5,1165 C135.13,1222 181.56,1329.48 256,1391 C268.69,1401.49 278.3356,1407.4065 293.8556,1413.8265 " fill="transparent" id="Client-to-UC8" style="stroke:#181818;stroke-width:1;"/><polygon fill="#181818" points="299.4,1416.12,292.6124,1408.9835,294.7797,1414.2088,289.5545,1416.376,299.4,1416.12" style="stroke:#181818;stroke-width:1;"/></g><!--link Admin to Client--><g id="link_Admin_Client"><path d="M101,651.11 C101,797.02 101,924.94 101,1070.85 " fill="transparent" id="Admin-to-Client" style="stroke:#181818;stroke-width:1;"/><polygon fill="transparent" points="101,1088.85,107,1070.85,95,1070.85,101,1088.85" style="stroke:#181818;stroke-width:1;"/></g><!--link Admin to UC9--><g id="link_Admin_UC9"><path d="M117.1,574.74 C139.52,523 186.55,431.54 256,382 C275.7,367.95 294.7789,360.8135 317.7489,355.7835 " fill="transparent" id="Admin-to-UC9" style="stroke:#181818;stroke-width:1;"/><polygon fill="#181818" points="323.61,354.5,313.9627,352.5178,318.7257,355.5696,315.674,360.3326,323.61,354.5" style="stroke:#181818;stroke-width:1;"/></g><!--link Admin to UC10--><g id="link_Admin_UC10"><path d="M123.66,585.77 C151.15,552.93 201.58,498.14 256,466 C273.26,455.81 287.5457,449.6493 306.7257,443.5093 " fill="transparent" id="Admin-to-UC10" style="stroke:#181818;stroke-width:1;"/><polygon fill="#181818" points="312.44,441.68,302.649,440.6144,307.6781,443.2044,305.088,448.2335,312.44,441.68" style="stroke:#181818;stroke-width:1;"/></g><!--link Admin to UC11--><g id="link_Admin_UC11"><path d="M123.61,600.85 C152.89,584.76 207.12,556.3 256,538 C280.62,528.78 302.782,522.3266 326.742,516.2866 " fill="transparent" id="Admin-to-UC11" style="stroke:#181818;stroke-width:1;"/><polygon fill="#181818" points="332.56,514.82,322.8553,513.1413,327.7117,516.0422,324.8108,520.8986,332.56,514.82" style="stroke:#181818;stroke-width:1;"/></g><!--link Admin to UC12--><g id="link_Admin_UC12"><path d="M123.61,610.22 C163.11,605.14 242.799,594.8751 306.269,586.7151 " fill="transparent" id="Admin-to-UC12" style="stroke:#181818;stroke-width:1;"/><polygon fill="#181818" points="312.22,585.95,302.7834,583.1303,307.2608,586.5876,303.8035,591.065,312.22,585.95" style="stroke:#181818;stroke-width:1;"/></g><!--link Admin to UC13--><g id="link_Admin_UC13"><path d="M123.61,616.38 C159.13,621.94 226.0221,632.4126 286.4921,641.8726 " fill="transparent" id="Admin-to-UC13" style="stroke:#181818;stroke-width:1;"/><polygon fill="#181818" points="292.42,642.8,284.1464,637.457,287.4801,642.0272,282.9099,645.3609,292.42,642.8" style="stroke:#181818;stroke-width:1;"/></g><!--link Admin to UC14--><g id="link_Admin_UC14"><path d="M123.66,627.51 C152.78,646.53 206.61,680.07 256,702 C276.14,710.94 293.0107,717.1262 313.7907,723.7162 " fill="transparent" id="Admin-to-UC14" style="stroke:#181818;stroke-width:1;"/><polygon fill="#181818" points="319.51,725.53,312.1402,718.9965,314.7439,724.0185,309.7219,726.6222,319.51,725.53" style="stroke:#181818;stroke-width:1;"/></g><!--link Admin to UC15--><g id="link_Admin_UC15"><path d="M123.69,647.25 C150.3,686.62 198.97,750.61 256,788 C271.98,798.48 285.0367,804.6566 303.3267,810.8466 " fill="transparent" id="Admin-to-UC15" style="stroke:#181818;stroke-width:1;"/><polygon fill="#181818" points="309.01,812.77,301.7673,806.0959,304.2739,811.1671,299.2027,813.6737,309.01,812.77" style="stroke:#181818;stroke-width:1;"/></g><!--link PaymentSystem to UC16--><g id="link_PaymentSystem_UC16"><path d="M187.87,221.05 C226.75,215.64 266.4772,210.1166 304.5072,204.8266 " fill="transparent" id="PaymentSystem-to-UC16" style="stroke:#181818;stroke-width:1;"/><polygon fill="#181818" points="310.45,204,300.9847,201.2781,305.4977,204.6889,302.0869,209.2018,310.45,204" style="stroke:#181818;stroke-width:1;"/></g><!--link PaymentSystem to UC17--><g id="link_PaymentSystem_UC17"><path d="M187.87,244.65 C224.77,249.65 261.8244,254.6838 298.6244,259.6738 " fill="transparent" id="PaymentSystem-to-UC17" style="stroke:#181818;stroke-width:1;"/><polygon fill="#181818" points="304.57,260.48,296.1891,255.307,299.6153,259.8082,295.1141,263.2344,304.57,260.48" style="stroke:#181818;stroke-width:1;"/></g><!--link NotificationSystem to UC18--><g id="link_NotificationSystem_UC18"><path d="M195.34,54.36 C234.69,48.62 273.873,42.887 310.713,37.507 " fill="transparent" id="NotificationSystem-to-UC18" style="stroke:#181818;stroke-width:1;"/><polygon fill="#181818" points="316.65,36.64,307.1664,33.9825,311.7025,37.3625,308.3225,41.8986,316.65,36.64" style="stroke:#181818;stroke-width:1;"/></g><!--link NotificationSystem to UC19--><g id="link_NotificationSystem_UC19"><path d="M195.34,81.31 C223.05,85.26 247.6801,88.7726 276.2101,92.8426 " fill="transparent" id="NotificationSystem-to-UC19" style="stroke:#181818;stroke-width:1;"/><polygon fill="#181818" points="282.15,93.69,273.8051,88.459,277.2001,92.9839,272.6753,96.3789,282.15,93.69" style="stroke:#181818;stroke-width:1;"/></g><!--link UC5 to UC2--><g id="link_UC5_UC2"><path d="M467.87,1189.53 C488.13,1184.07 508.84,1175.48 525,1162 C548.51,1142.39 537.61,1125.19 555,1100 C581.08,1062.23 600.69,1063.29 626,1025 C674.27,951.95 705.9342,859.236 718.1442,820.156 " fill="transparent" id="UC5-to-UC2" style="stroke:#181818;stroke-width:1;"/><polygon fill="#181818" points="720.53,812.52,715.2808,819.2613,721.0077,821.0506,720.53,812.52" style="stroke:#181818;stroke-width:1;"/><text fill="#000000" font-family="sans-serif" font-size="13" lengthAdjust="spacing" textLength="69.7798" x="556" y="1021.0669">&#171;includes&#187;</text></g><!--link UC6 to UC2--><g id="link_UC6_UC2"><path d="M465.27,1262.25 C485.61,1256.44 507,1248.3 525,1237 C581.77,1201.36 593.06,1183.38 626,1125 C687.88,1015.34 714.1307,870.8565 721.8707,820.6665 " fill="transparent" id="UC6-to-UC2" style="stroke:#181818;stroke-width:1;"/><polygon fill="#181818" points="723.09,812.76,718.9058,820.2093,724.8357,821.1238,723.09,812.76" style="stroke:#181818;stroke-width:1;"/><text fill="#000000" font-family="sans-serif" font-size="13" lengthAdjust="spacing" textLength="69.7798" x="556" y="1121.0669">&#171;includes&#187;</text></g><!--link UC7 to UC2--><g id="link_UC7_UC2"><path d="M459.27,1340.3 C514.41,1326.06 588.94,1297.03 626,1240 C719.84,1095.6 726.0396,883.1599 725.8096,820.8999 " fill="transparent" id="UC7-to-UC2" style="stroke:#181818;stroke-width:1;"/><polygon fill="#181818" points="725.78,812.9,722.8096,820.911,728.8095,820.8889,725.78,812.9" style="stroke:#181818;stroke-width:1;"/><text fill="#000000" font-family="sans-serif" font-size="13" lengthAdjust="spacing" textLength="69.7798" x="556" y="1236.0669">&#171;includes&#187;</text></g><!--link UC8 to UC2--><g id="link_UC8_UC2"><path d="M486.13,1417.1 C536.38,1400.8 594.18,1372.63 626,1325 C684.59,1237.29 716.5349,900.8706 723.4249,820.7106 " fill="transparent" id="UC8-to-UC2" style="stroke:#181818;stroke-width:1;"/><polygon fill="#181818" points="724.11,812.74,720.4359,820.4537,726.4139,820.9675,724.11,812.74" style="stroke:#181818;stroke-width:1;"/><text fill="#000000" font-family="sans-serif" font-size="13" lengthAdjust="spacing" textLength="69.7798" x="556" y="1321.0669">&#171;includes&#187;</text></g><!--link UC9 to UC2--><g id="link_UC9_UC2"><path d="M453.43,355.99 C508.11,367.42 585.3,392.78 626,448 C705.61,555.99 721.1722,717.9137 724.3022,771.3537 " fill="transparent" id="UC9-to-UC2" style="stroke:#181818;stroke-width:1;"/><polygon fill="#181818" points="724.77,779.34,727.2971,771.1783,721.3074,771.5291,724.77,779.34" style="stroke:#181818;stroke-width:1;"/><text fill="#000000" font-family="sans-serif" font-size="13" lengthAdjust="spacing" textLength="69.7798" x="556" y="389.0669">&#171;includes&#187;</text></g><!--link UC10 to UC2--><g id="link_UC10_UC2"><path d="M473.79,440.35 C524.86,454.72 587.82,480.82 626,527 C691.84,606.63 715.1155,725.9912 722.0255,771.3612 " fill="transparent" id="UC10-to-UC2" style="stroke:#181818;stroke-width:1;"/><polygon fill="#181818" points="723.23,779.27,724.9913,770.9095,719.0597,771.8129,723.23,779.27" style="stroke:#181818;stroke-width:1;"/><text fill="#000000" font-family="sans-serif" font-size="13" lengthAdjust="spacing" textLength="69.7798" x="556" y="469.0669">&#171;includes&#187;</text></g><!--link UC11 to UC2--><g id="link_UC11_UC2"><path d="M452.15,513.8 C475.53,519.51 502.1,527.46 525,538 C574.38,560.73 589.83,566.42 626,607 C674.73,661.67 704.812,736.9415 717.242,771.9315 " fill="transparent" id="UC11-to-UC2" style="stroke:#181818;stroke-width:1;"/><polygon fill="#181818" points="719.92,779.47,720.0689,770.9273,714.4151,772.9358,719.92,779.47" style="stroke:#181818;stroke-width:1;"/><text fill="#000000" font-family="sans-serif" font-size="13" lengthAdjust="spacing" textLength="69.7798" x="556" y="548.0669">&#171;includes&#187;</text></g><!--link UC12 to UC2--><g id="link_UC12_UC2"><path d="M457.46,589.64 C479.58,595.54 503.96,603.54 525,614 C609.2,655.84 679.2388,737.122 708.0288,773.422 " fill="transparent" id="UC12-to-UC2" style="stroke:#181818;stroke-width:1;"/><polygon fill="#181818" points="713,779.69,710.3793,771.5578,705.6783,775.2862,713,779.69" style="stroke:#181818;stroke-width:1;"/><text fill="#000000" font-family="sans-serif" font-size="13" lengthAdjust="spacing" textLength="69.7798" x="556" y="628.0669">&#171;includes&#187;</text></g><!--link UC13 to UC2--><g id="link_UC13_UC2"><path d="M459.05,679.76 C480.27,686.87 503.71,695 525,703 C570.51,720.11 581.89,724.56 626,745 C650.48,756.34 670.6424,766.6518 690.4224,777.1418 " fill="transparent" id="UC13-to-UC2" style="stroke:#181818;stroke-width:1;"/><polygon fill="#181818" points="697.49,780.89,691.828,774.4915,689.0168,779.7922,697.49,780.89" style="stroke:#181818;stroke-width:1;"/><text fill="#000000" font-family="sans-serif" font-size="13" lengthAdjust="spacing" textLength="69.7798" x="556" y="711.0669">&#171;includes&#187;</text></g><!--link UC14 to UC2--><g id="link_UC14_UC2"><path d="M483.65,759.07 C542.25,768.02 608.4516,778.1328 659.0916,785.8628 " fill="transparent" id="UC14-to-UC2" style="stroke:#181818;stroke-width:1;"/><polygon fill="#181818" points="667,787.07,659.5443,782.8972,658.6389,788.8285,667,787.07" style="stroke:#181818;stroke-width:1;"/><text fill="#000000" font-family="sans-serif" font-size="13" lengthAdjust="spacing" textLength="69.7798" x="556" y="766.0669">&#171;includes&#187;</text></g><!--link UC15 to UC2--><g id="link_UC15_UC2"><path d="M503.24,824.54 C542.17,821.73 586.08,817.93 626,813 C640.7,811.18 648.6445,810.0684 663.2645,807.5684 " fill="transparent" id="UC15-to-UC2" style="stroke:#181818;stroke-width:1;"/><polygon fill="#181818" points="671.15,806.22,662.7588,804.6113,663.7701,810.5255,671.15,806.22" style="stroke:#181818;stroke-width:1;"/><text fill="#000000" font-family="sans-serif" font-size="13" lengthAdjust="spacing" textLength="69.7798" x="556" y="809.0669">&#171;includes&#187;</text></g><!--SRC=[VLJBRjim4BphAnQ-k3qOYFns4HW8ZDwA8cZJvhoXrZ4BYX98Aa20VaoFzNVunxgKAKji71uCQ3Z34RKpjAAz0rU1aSy71uKq99oiT9QXS9M1dPAaNG1tHIcPQIm9j0IZdJaToK2ZGLHbxMW4QE77BkyLtyVOk0CxoBqa4_XfptyZSI3ZVzvbBrKPDBDUyqLQnxmYsmfiKCm7BgUZ9VFIcX3K2aLtb4KlkiTN5dmGQ1p14sg1_AqVWsxPw-wqRXGhpTaK_JI2QZLG_QeQrvyQJdz08IX_L7Yeu16TE8HTw-pTRK6n6GZsUmuWDlOVPL6fotnlhXd-fnc6qDIraUKrrVIwwlpgOln6Fxl-vdRatSIu4vryc17fmj10NKXRLre-zUQBmQ0U3CekzHebbToXBlbyaDPFLB88EcTGMsphUv6k1fvVgtCDGOqR9pahTDHqfSpNlV2pVgbyMGesDLZNf2m_WpqTkJPqyTvasVbwm6IoRNiVmMaCPp6Snt0HmsKCLp7aHhLN4IQ_j-66mcMfLMmYn8M9O1x3QGndCPp7a4FoVn6edvKlpQjrfxyb-V7SXvZQyV1jyy-Uf_Az7UT0H7_5XWjXQnOvTQTONb_cjDzQTEGwmN6Kd857RNBm2KQtjr8BrN07jjiHiyiakqgowoIxIRBvJPhEq_GqJS_Iz3nD9oRs3m00]--></g></svg>