<svg xmlns="http://www.w3.org/2000/svg" xmlns:xlink="http://www.w3.org/1999/xlink" contentStyleType="text/css" data-diagram-type="CLASS" height="1280px" preserveAspectRatio="none" style="width:929px;height:1280px;background:#FFFFFF;" version="1.1" viewBox="0 0 929 1280" width="929px" zoomAndPan="magnify"><defs/><g><!--class Utilisateur--><g id="elem_Utilisateur"><rect codeLine="1" fill="#F1F1F1" height="113.1875" id="Utilisateur" rx="2.5" ry="2.5" style="stroke:#181818;stroke-width:0.5;" width="168.707" x="594.5" y="7"/><ellipse cx="638.6138" cy="23" fill="#A9DCDF" rx="11" ry="11" style="stroke:#181818;stroke-width:1;"/><path d="M638.7231,18.3438 L637.5669,23.4219 L639.895,23.4219 L638.7231,18.3438 Z M637.2388,16.1094 L640.2231,16.1094 L643.5825,28.5 L641.1294,28.5 L640.3638,25.4375 L637.0825,25.4375 L636.3325,28.5 L633.895,28.5 L637.2388,16.1094 Z " fill="#000000"/><text fill="#000000" font-family="sans-serif" font-size="14" font-style="italic" lengthAdjust="spacing" textLength="72.0098" x="659.0835" y="27.8467">Utilisateur</text><line style="stroke:#181818;stroke-width:0.5;" x1="595.5" x2="762.207" y1="39" y2="39"/><rect fill="transparent" height="6" style="stroke:#C82930;stroke-width:1;" width="6" x="602.5" y="49.6484"/><text fill="#000000" font-family="sans-serif" font-size="14" lengthAdjust="spacing" textLength="86.4746" x="614.5" y="55.9951">nom : String</text><rect fill="transparent" height="6" style="stroke:#C82930;stroke-width:1;" width="6" x="602.5" y="65.9453"/><text fill="#000000" font-family="sans-serif" font-size="14" lengthAdjust="spacing" textLength="109.7305" x="614.5" y="72.292">pr&#233;nom : String</text><rect fill="transparent" height="6" style="stroke:#C82930;stroke-width:1;" width="6" x="602.5" y="82.2422"/><text fill="#000000" font-family="sans-serif" font-size="14" lengthAdjust="spacing" textLength="94.0078" x="614.5" y="88.5889">email : String</text><rect fill="transparent" height="6" style="stroke:#C82930;stroke-width:1;" width="6" x="602.5" y="98.5391"/><text fill="#000000" font-family="sans-serif" font-size="14" lengthAdjust="spacing" textLength="142.707" x="614.5" y="104.8857">motDePasse : String</text><line style="stroke:#181818;stroke-width:0.5;" x1="595.5" x2="762.207" y1="112.1875" y2="112.1875"/></g><!--class Client--><g id="elem_Client"><rect codeLine="9" fill="#F1F1F1" height="64.2969" id="Client" rx="2.5" ry="2.5" style="stroke:#181818;stroke-width:0.5;" width="155.541" x="458" y="181"/><ellipse cx="511.2554" cy="197" fill="#ADD1B2" rx="11" ry="11" style="stroke:#181818;stroke-width:1;"/><path d="M514.2241,202.6406 Q513.646,202.9375 513.0054,203.0781 Q512.3647,203.2344 511.6616,203.2344 Q509.1616,203.2344 507.8335,201.5938 Q506.521,199.9375 506.521,196.8125 Q506.521,193.6875 507.8335,192.0313 Q509.1616,190.375 511.6616,190.375 Q512.3647,190.375 513.0054,190.5313 Q513.6616,190.6875 514.2241,190.9844 L514.2241,193.7031 Q513.5991,193.125 513.0054,192.8594 Q512.4116,192.5781 511.7866,192.5781 Q510.4429,192.5781 509.7554,193.6563 Q509.0679,194.7188 509.0679,196.8125 Q509.0679,198.9063 509.7554,199.9844 Q510.4429,201.0469 511.7866,201.0469 Q512.4116,201.0469 513.0054,200.7813 Q513.5991,200.5 514.2241,199.9219 L514.2241,202.6406 Z " fill="#000000"/><text fill="#000000" font-family="sans-serif" font-size="14" lengthAdjust="spacing" textLength="40.5303" x="531.7554" y="201.8467">Client</text><line style="stroke:#181818;stroke-width:0.5;" x1="459" x2="612.541" y1="213" y2="213"/><ellipse cx="469" cy="226.6484" fill="transparent" rx="3" ry="3" style="stroke:#038048;stroke-width:1;"/><text fill="#000000" font-family="sans-serif" font-size="14" lengthAdjust="spacing" textLength="129.541" x="478" y="229.9951">id_client : Int &#171;PK&#187;</text><line style="stroke:#181818;stroke-width:0.5;" x1="459" x2="612.541" y1="237.2969" y2="237.2969"/></g><!--class Administrateur--><g id="elem_Administrateur"><rect codeLine="13" fill="#F1F1F1" height="64.2969" id="Administrateur" rx="2.5" ry="2.5" style="stroke:#181818;stroke-width:0.5;" width="160.9551" x="692.5" y="592.5"/><ellipse cx="718.4582" cy="608.5" fill="#ADD1B2" rx="11" ry="11" style="stroke:#181818;stroke-width:1;"/><path d="M721.427,614.1406 Q720.8488,614.4375 720.2082,614.5781 Q719.5676,614.7344 718.8645,614.7344 Q716.3645,614.7344 715.0363,613.0938 Q713.7238,611.4375 713.7238,608.3125 Q713.7238,605.1875 715.0363,603.5313 Q716.3645,601.875 718.8645,601.875 Q719.5676,601.875 720.2082,602.0313 Q720.8645,602.1875 721.427,602.4844 L721.427,605.2031 Q720.802,604.625 720.2082,604.3594 Q719.6145,604.0781 718.9895,604.0781 Q717.6457,604.0781 716.9582,605.1563 Q716.2707,606.2188 716.2707,608.3125 Q716.2707,610.4063 716.9582,611.4844 Q717.6457,612.5469 718.9895,612.5469 Q719.6145,612.5469 720.2082,612.2813 Q720.802,612 721.427,611.4219 L721.427,614.1406 Z " fill="#000000"/><text fill="#000000" font-family="sans-serif" font-size="14" lengthAdjust="spacing" textLength="104.6035" x="734.8934" y="613.3467">Administrateur</text><line style="stroke:#181818;stroke-width:0.5;" x1="693.5" x2="852.4551" y1="624.5" y2="624.5"/><ellipse cx="703.5" cy="638.1484" fill="transparent" rx="3" ry="3" style="stroke:#038048;stroke-width:1;"/><text fill="#000000" font-family="sans-serif" font-size="14" lengthAdjust="spacing" textLength="134.9551" x="712.5" y="641.4951">id_admin : Int &#171;PK&#187;</text><line style="stroke:#181818;stroke-width:0.5;" x1="693.5" x2="852.4551" y1="648.7969" y2="648.7969"/></g><!--class Film--><g id="elem_Film"><rect codeLine="21" fill="#F1F1F1" height="129.4844" id="Film" rx="2.5" ry="2.5" style="stroke:#181818;stroke-width:0.5;" width="143.4346" x="483.5" y="987"/><ellipse cx="536.2324" cy="1003" fill="#ADD1B2" rx="11" ry="11" style="stroke:#181818;stroke-width:1;"/><path d="M539.2012,1008.6406 Q538.623,1008.9375 537.9824,1009.0781 Q537.3418,1009.2344 536.6387,1009.2344 Q534.1387,1009.2344 532.8105,1007.5938 Q531.498,1005.9375 531.498,1002.8125 Q531.498,999.6875 532.8105,998.0313 Q534.1387,996.375 536.6387,996.375 Q537.3418,996.375 537.9824,996.5313 Q538.6387,996.6875 539.2012,996.9844 L539.2012,999.7031 Q538.5762,999.125 537.9824,998.8594 Q537.3887,998.5781 536.7637,998.5781 Q535.4199,998.5781 534.7324,999.6563 Q534.0449,1000.7188 534.0449,1002.8125 Q534.0449,1004.9063 534.7324,1005.9844 Q535.4199,1007.0469 536.7637,1007.0469 Q537.3887,1007.0469 537.9824,1006.7813 Q538.5762,1006.5 539.2012,1005.9219 L539.2012,1008.6406 Z " fill="#000000"/><text fill="#000000" font-family="sans-serif" font-size="14" lengthAdjust="spacing" textLength="29.4697" x="556.7324" y="1007.8467">Film</text><line style="stroke:#181818;stroke-width:0.5;" x1="484.5" x2="625.9346" y1="1019" y2="1019"/><ellipse cx="494.5" cy="1032.6484" fill="transparent" rx="3" ry="3" style="stroke:#038048;stroke-width:1;"/><text fill="#000000" font-family="sans-serif" font-size="14" lengthAdjust="spacing" textLength="117.4346" x="503.5" y="1035.9951">id_film : Int &#171;PK&#187;</text><rect fill="transparent" height="6" style="stroke:#C82930;stroke-width:1;" width="6" x="491.5" y="1045.9453"/><text fill="#000000" font-family="sans-serif" font-size="14" lengthAdjust="spacing" textLength="84.6357" x="503.5" y="1052.292">titre : String</text><rect fill="transparent" height="6" style="stroke:#C82930;stroke-width:1;" width="6" x="491.5" y="1062.2422"/><text fill="#000000" font-family="sans-serif" font-size="14" lengthAdjust="spacing" textLength="96.1406" x="503.5" y="1068.5889">genre : String</text><rect fill="transparent" height="6" style="stroke:#C82930;stroke-width:1;" width="6" x="491.5" y="1078.5391"/><text fill="#000000" font-family="sans-serif" font-size="14" lengthAdjust="spacing" textLength="72.8506" x="503.5" y="1084.8857">dur&#233;e : Int</text><rect fill="transparent" height="6" style="stroke:#C82930;stroke-width:1;" width="6" x="491.5" y="1094.8359"/><text fill="#000000" font-family="sans-serif" font-size="14" lengthAdjust="spacing" textLength="108.1855" x="503.5" y="1101.1826">r&#233;sum&#233; : String</text><line style="stroke:#181818;stroke-width:0.5;" x1="484.5" x2="625.9346" y1="1108.4844" y2="1108.4844"/></g><!--class R?servation--><g id="elem_R&#233;servation"><rect codeLine="29" fill="#F1F1F1" height="96.8906" id="R&#233;servation" rx="2.5" ry="2.5" style="stroke:#181818;stroke-width:0.5;" width="196.8027" x="437.5" y="576"/><ellipse cx="489.8086" cy="592" fill="#ADD1B2" rx="11" ry="11" style="stroke:#181818;stroke-width:1;"/><path d="M492.7773,597.6406 Q492.1992,597.9375 491.5586,598.0781 Q490.918,598.2344 490.2148,598.2344 Q487.7148,598.2344 486.3867,596.5938 Q485.0742,594.9375 485.0742,591.8125 Q485.0742,588.6875 486.3867,587.0313 Q487.7148,585.375 490.2148,585.375 Q490.918,585.375 491.5586,585.5313 Q492.2148,585.6875 492.7773,585.9844 L492.7773,588.7031 Q492.1523,588.125 491.5586,587.8594 Q490.9648,587.5781 490.3398,587.5781 Q488.9961,587.5781 488.3086,588.6563 Q487.6211,589.7188 487.6211,591.8125 Q487.6211,593.9063 488.3086,594.9844 Q488.9961,596.0469 490.3398,596.0469 Q490.9648,596.0469 491.5586,595.7813 Q492.1523,595.5 492.7773,594.9219 L492.7773,597.6406 Z " fill="#000000"/><text fill="#000000" font-family="sans-serif" font-size="14" lengthAdjust="spacing" textLength="83.6855" x="510.3086" y="596.8467">R&#233;servation</text><line style="stroke:#181818;stroke-width:0.5;" x1="438.5" x2="633.3027" y1="608" y2="608"/><ellipse cx="448.5" cy="621.6484" fill="transparent" rx="3" ry="3" style="stroke:#038048;stroke-width:1;"/><text fill="#000000" font-family="sans-serif" font-size="14" lengthAdjust="spacing" textLength="170.8027" x="457.5" y="624.9951">id_reservation : Int &#171;PK&#187;</text><rect fill="transparent" height="6" style="stroke:#C82930;stroke-width:1;" width="6" x="445.5" y="634.9453"/><text fill="#000000" font-family="sans-serif" font-size="14" lengthAdjust="spacing" textLength="162.333" x="457.5" y="641.292">dateReservation : Date</text><rect fill="transparent" height="6" style="stroke:#C82930;stroke-width:1;" width="6" x="445.5" y="651.2422"/><text fill="#000000" font-family="sans-serif" font-size="14" lengthAdjust="spacing" textLength="96.6123" x="457.5" y="657.5889">statut : String</text><line style="stroke:#181818;stroke-width:0.5;" x1="438.5" x2="633.3027" y1="664.8906" y2="664.8906"/></g><!--class Paiement--><g id="elem_Paiement"><rect codeLine="35" fill="#F1F1F1" height="96.8906" id="Paiement" rx="2.5" ry="2.5" style="stroke:#181818;stroke-width:0.5;" width="183.6709" x="444" y="322"/><ellipse cx="498.5166" cy="338" fill="#ADD1B2" rx="11" ry="11" style="stroke:#181818;stroke-width:1;"/><path d="M501.4854,343.6406 Q500.9072,343.9375 500.2666,344.0781 Q499.626,344.2344 498.9229,344.2344 Q496.4229,344.2344 495.0947,342.5938 Q493.7822,340.9375 493.7822,337.8125 Q493.7822,334.6875 495.0947,333.0313 Q496.4229,331.375 498.9229,331.375 Q499.626,331.375 500.2666,331.5313 Q500.9229,331.6875 501.4854,331.9844 L501.4854,334.7031 Q500.8604,334.125 500.2666,333.8594 Q499.6729,333.5781 499.0479,333.5781 Q497.7041,333.5781 497.0166,334.6563 Q496.3291,335.7188 496.3291,337.8125 Q496.3291,339.9063 497.0166,340.9844 Q497.7041,342.0469 499.0479,342.0469 Q499.6729,342.0469 500.2666,341.7813 Q500.8604,341.5 501.4854,340.9219 L501.4854,343.6406 Z " fill="#000000"/><text fill="#000000" font-family="sans-serif" font-size="14" lengthAdjust="spacing" textLength="66.1377" x="519.0166" y="342.8467">Paiement</text><line style="stroke:#181818;stroke-width:0.5;" x1="445" x2="626.6709" y1="354" y2="354"/><ellipse cx="455" cy="367.6484" fill="transparent" rx="3" ry="3" style="stroke:#038048;stroke-width:1;"/><text fill="#000000" font-family="sans-serif" font-size="14" lengthAdjust="spacing" textLength="157.6709" x="464" y="370.9951">id_paiement : Int &#171;PK&#187;</text><rect fill="transparent" height="6" style="stroke:#C82930;stroke-width:1;" width="6" x="452" y="380.9453"/><text fill="#000000" font-family="sans-serif" font-size="14" lengthAdjust="spacing" textLength="107.7002" x="464" y="387.292">montant : Float</text><rect fill="transparent" height="6" style="stroke:#C82930;stroke-width:1;" width="6" x="452" y="397.2422"/><text fill="#000000" font-family="sans-serif" font-size="14" lengthAdjust="spacing" textLength="96.6123" x="464" y="403.5889">statut : String</text><line style="stroke:#181818;stroke-width:0.5;" x1="445" x2="626.6709" y1="410.8906" y2="410.8906"/></g><!--class Salle--><g id="elem_Salle"><rect codeLine="41" fill="#F1F1F1" height="96.8906" id="Salle" rx="2.5" ry="2.5" style="stroke:#181818;stroke-width:0.5;" width="185.4893" x="681.5" y="1003"/><ellipse cx="753.0654" cy="1019" fill="#ADD1B2" rx="11" ry="11" style="stroke:#181818;stroke-width:1;"/><path d="M756.0342,1024.6406 Q755.4561,1024.9375 754.8154,1025.0781 Q754.1748,1025.2344 753.4717,1025.2344 Q750.9717,1025.2344 749.6436,1023.5938 Q748.3311,1021.9375 748.3311,1018.8125 Q748.3311,1015.6875 749.6436,1014.0313 Q750.9717,1012.375 753.4717,1012.375 Q754.1748,1012.375 754.8154,1012.5313 Q755.4717,1012.6875 756.0342,1012.9844 L756.0342,1015.7031 Q755.4092,1015.125 754.8154,1014.8594 Q754.2217,1014.5781 753.5967,1014.5781 Q752.2529,1014.5781 751.5654,1015.6563 Q750.8779,1016.7188 750.8779,1018.8125 Q750.8779,1020.9063 751.5654,1021.9844 Q752.2529,1023.0469 753.5967,1023.0469 Q754.2217,1023.0469 754.8154,1022.7813 Q755.4092,1022.5 756.0342,1021.9219 L756.0342,1024.6406 Z " fill="#000000"/><text fill="#000000" font-family="sans-serif" font-size="14" lengthAdjust="spacing" textLength="33.8584" x="773.5654" y="1023.8467">Salle</text><line style="stroke:#181818;stroke-width:0.5;" x1="682.5" x2="865.9893" y1="1035" y2="1035"/><ellipse cx="692.5" cy="1048.6484" fill="transparent" rx="3" ry="3" style="stroke:#038048;stroke-width:1;"/><text fill="#000000" font-family="sans-serif" font-size="14" lengthAdjust="spacing" textLength="159.4893" x="701.5" y="1051.9951">numeroSalle : Int &#171;PK&#187;</text><rect fill="transparent" height="6" style="stroke:#C82930;stroke-width:1;" width="6" x="689.5" y="1061.9453"/><text fill="#000000" font-family="sans-serif" font-size="14" lengthAdjust="spacing" textLength="86.4746" x="701.5" y="1068.292">nom : String</text><rect fill="transparent" height="6" style="stroke:#C82930;stroke-width:1;" width="6" x="689.5" y="1078.2422"/><text fill="#000000" font-family="sans-serif" font-size="14" lengthAdjust="spacing" textLength="91.54" x="701.5" y="1084.5889">capacit&#233; : Int</text><line style="stroke:#181818;stroke-width:0.5;" x1="682.5" x2="865.9893" y1="1091.8906" y2="1091.8906"/></g><!--class S?ance--><g id="elem_S&#233;ance"><rect codeLine="47" fill="#F1F1F1" height="113.1875" id="S&#233;ance" rx="2.5" ry="2.5" style="stroke:#181818;stroke-width:0.5;" width="166.7588" x="689.5" y="797"/><ellipse cx="742.998" cy="813" fill="#ADD1B2" rx="11" ry="11" style="stroke:#181818;stroke-width:1;"/><path d="M745.9668,818.6406 Q745.3887,818.9375 744.748,819.0781 Q744.1074,819.2344 743.4043,819.2344 Q740.9043,819.2344 739.5762,817.5938 Q738.2637,815.9375 738.2637,812.8125 Q738.2637,809.6875 739.5762,808.0313 Q740.9043,806.375 743.4043,806.375 Q744.1074,806.375 744.748,806.5313 Q745.4043,806.6875 745.9668,806.9844 L745.9668,809.7031 Q745.3418,809.125 744.748,808.8594 Q744.1543,808.5781 743.5293,808.5781 Q742.1855,808.5781 741.498,809.6563 Q740.8105,810.7188 740.8105,812.8125 Q740.8105,814.9063 741.498,815.9844 Q742.1855,817.0469 743.5293,817.0469 Q744.1543,817.0469 744.748,816.7813 Q745.3418,816.5 745.9668,815.9219 L745.9668,818.6406 Z " fill="#000000"/><text fill="#000000" font-family="sans-serif" font-size="14" lengthAdjust="spacing" textLength="51.2627" x="763.498" y="817.8467">S&#233;ance</text><line style="stroke:#181818;stroke-width:0.5;" x1="690.5" x2="855.2588" y1="829" y2="829"/><ellipse cx="700.5" cy="842.6484" fill="transparent" rx="3" ry="3" style="stroke:#038048;stroke-width:1;"/><text fill="#000000" font-family="sans-serif" font-size="14" lengthAdjust="spacing" textLength="140.7588" x="709.5" y="845.9951">id_seance : Int &#171;PK&#187;</text><rect fill="transparent" height="6" style="stroke:#C82930;stroke-width:1;" width="6" x="697.5" y="855.9453"/><text fill="#000000" font-family="sans-serif" font-size="14" lengthAdjust="spacing" textLength="78.6475" x="709.5" y="862.292">date : Date</text><rect fill="transparent" height="6" style="stroke:#C82930;stroke-width:1;" width="6" x="697.5" y="872.2422"/><text fill="#000000" font-family="sans-serif" font-size="14" lengthAdjust="spacing" textLength="89.0381" x="709.5" y="878.5889">heure : Time</text><rect fill="transparent" height="6" style="stroke:#C82930;stroke-width:1;" width="6" x="697.5" y="888.5391"/><text fill="#000000" font-family="sans-serif" font-size="14" lengthAdjust="spacing" textLength="103.1133" x="709.5" y="894.8857">langue : String</text><line style="stroke:#181818;stroke-width:0.5;" x1="690.5" x2="855.2588" y1="902.1875" y2="902.1875"/></g><!--class Billet--><g id="elem_Billet"><rect codeLine="54" fill="#F1F1F1" height="96.8906" id="Billet" rx="2.5" ry="2.5" style="stroke:#181818;stroke-width:0.5;" width="216.5791" x="130.5" y="805"/><ellipse cx="216.8516" cy="821" fill="#ADD1B2" rx="11" ry="11" style="stroke:#181818;stroke-width:1;"/><path d="M219.8203,826.6406 Q219.2422,826.9375 218.6016,827.0781 Q217.9609,827.2344 217.2578,827.2344 Q214.7578,827.2344 213.4297,825.5938 Q212.1172,823.9375 212.1172,820.8125 Q212.1172,817.6875 213.4297,816.0313 Q214.7578,814.375 217.2578,814.375 Q217.9609,814.375 218.6016,814.5313 Q219.2578,814.6875 219.8203,814.9844 L219.8203,817.7031 Q219.1953,817.125 218.6016,816.8594 Q218.0078,816.5781 217.3828,816.5781 Q216.0391,816.5781 215.3516,817.6563 Q214.6641,818.7188 214.6641,820.8125 Q214.6641,822.9063 215.3516,823.9844 Q216.0391,825.0469 217.3828,825.0469 Q218.0078,825.0469 218.6016,824.7813 Q219.1953,824.5 219.8203,823.9219 L219.8203,826.6406 Z " fill="#000000"/><text fill="#000000" font-family="sans-serif" font-size="14" lengthAdjust="spacing" textLength="35.376" x="237.3516" y="825.8467">Billet</text><line style="stroke:#181818;stroke-width:0.5;" x1="131.5" x2="346.0791" y1="837" y2="837"/><ellipse cx="141.5" cy="850.6484" fill="transparent" rx="3" ry="3" style="stroke:#038048;stroke-width:1;"/><text fill="#000000" font-family="sans-serif" font-size="14" lengthAdjust="spacing" textLength="190.5791" x="150.5" y="853.9951">numero_billet : String &#171;PK&#187;</text><rect fill="transparent" height="6" style="stroke:#C82930;stroke-width:1;" width="6" x="138.5" y="863.9453"/><text fill="#000000" font-family="sans-serif" font-size="14" lengthAdjust="spacing" textLength="109.9082" x="150.5" y="870.292">codeQR : String</text><rect fill="transparent" height="6" style="stroke:#C82930;stroke-width:1;" width="6" x="138.5" y="880.2422"/><text fill="#000000" font-family="sans-serif" font-size="14" lengthAdjust="spacing" textLength="109.0742" x="150.5" y="886.5889">estValide : Bool</text><line style="stroke:#181818;stroke-width:0.5;" x1="131.5" x2="346.0791" y1="893.8906" y2="893.8906"/></g><!--class Si?ge--><g id="elem_Si&#232;ge"><rect codeLine="60" fill="#F1F1F1" height="80.5938" id="Si&#232;ge" rx="2.5" ry="2.5" style="stroke:#181818;stroke-width:0.5;" width="219.2178" x="245.5" y="1193"/><ellipse cx="331.4141" cy="1209" fill="#ADD1B2" rx="11" ry="11" style="stroke:#181818;stroke-width:1;"/><path d="M334.3828,1214.6406 Q333.8047,1214.9375 333.1641,1215.0781 Q332.5234,1215.2344 331.8203,1215.2344 Q329.3203,1215.2344 327.9922,1213.5938 Q326.6797,1211.9375 326.6797,1208.8125 Q326.6797,1205.6875 327.9922,1204.0313 Q329.3203,1202.375 331.8203,1202.375 Q332.5234,1202.375 333.1641,1202.5313 Q333.8203,1202.6875 334.3828,1202.9844 L334.3828,1205.7031 Q333.7578,1205.125 333.1641,1204.8594 Q332.5703,1204.5781 331.9453,1204.5781 Q330.6016,1204.5781 329.9141,1205.6563 Q329.2266,1206.7188 329.2266,1208.8125 Q329.2266,1210.9063 329.9141,1211.9844 Q330.6016,1213.0469 331.9453,1213.0469 Q332.5703,1213.0469 333.1641,1212.7813 Q333.7578,1212.5 334.3828,1211.9219 L334.3828,1214.6406 Z " fill="#000000"/><text fill="#000000" font-family="sans-serif" font-size="14" lengthAdjust="spacing" textLength="38.8896" x="351.9141" y="1213.8467">Si&#232;ge</text><line style="stroke:#181818;stroke-width:0.5;" x1="246.5" x2="463.7178" y1="1225" y2="1225"/><ellipse cx="256.5" cy="1238.6484" fill="transparent" rx="3" ry="3" style="stroke:#038048;stroke-width:1;"/><text fill="#000000" font-family="sans-serif" font-size="14" lengthAdjust="spacing" textLength="193.2178" x="265.5" y="1241.9951">numero_siege : String &#171;PK&#187;</text><rect fill="transparent" height="6" style="stroke:#C82930;stroke-width:1;" width="6" x="253.5" y="1251.9453"/><text fill="#000000" font-family="sans-serif" font-size="14" lengthAdjust="spacing" textLength="83.5693" x="265.5" y="1258.292">&#233;tat : String</text><line style="stroke:#181818;stroke-width:0.5;" x1="246.5" x2="463.7178" y1="1265.5938" y2="1265.5938"/></g><!--class Notification--><g id="elem_Notification"><rect codeLine="65" fill="#F1F1F1" height="96.8906" id="Notification" rx="2.5" ry="2.5" style="stroke:#181818;stroke-width:0.5;" width="195.8184" x="7" y="449"/><ellipse cx="60.4946" cy="465" fill="#ADD1B2" rx="11" ry="11" style="stroke:#181818;stroke-width:1;"/><path d="M63.4634,470.6406 Q62.8853,470.9375 62.2446,471.0781 Q61.604,471.2344 60.9009,471.2344 Q58.4009,471.2344 57.0728,469.5938 Q55.7603,467.9375 55.7603,464.8125 Q55.7603,461.6875 57.0728,460.0313 Q58.4009,458.375 60.9009,458.375 Q61.604,458.375 62.2446,458.5313 Q62.9009,458.6875 63.4634,458.9844 L63.4634,461.7031 Q62.8384,461.125 62.2446,460.8594 Q61.6509,460.5781 61.0259,460.5781 Q59.6821,460.5781 58.9946,461.6563 Q58.3071,462.7188 58.3071,464.8125 Q58.3071,466.9063 58.9946,467.9844 Q59.6821,469.0469 61.0259,469.0469 Q61.6509,469.0469 62.2446,468.7813 Q62.8384,468.5 63.4634,467.9219 L63.4634,470.6406 Z " fill="#000000"/><text fill="#000000" font-family="sans-serif" font-size="14" lengthAdjust="spacing" textLength="80.3291" x="80.9946" y="469.8467">Notification</text><line style="stroke:#181818;stroke-width:0.5;" x1="8" x2="201.8184" y1="481" y2="481"/><ellipse cx="18" cy="494.6484" fill="transparent" rx="3" ry="3" style="stroke:#038048;stroke-width:1;"/><text fill="#000000" font-family="sans-serif" font-size="14" lengthAdjust="spacing" textLength="169.8184" x="27" y="497.9951">id_notification : Int &#171;PK&#187;</text><rect fill="transparent" height="6" style="stroke:#C82930;stroke-width:1;" width="6" x="15" y="507.9453"/><text fill="#000000" font-family="sans-serif" font-size="14" lengthAdjust="spacing" textLength="86.6729" x="27" y="514.292">type : String</text><rect fill="transparent" height="6" style="stroke:#C82930;stroke-width:1;" width="6" x="15" y="524.2422"/><text fill="#000000" font-family="sans-serif" font-size="14" lengthAdjust="spacing" textLength="117.1064" x="27" y="530.5889">dateEnvoi : Date</text><line style="stroke:#181818;stroke-width:0.5;" x1="8" x2="201.8184" y1="537.8906" y2="537.8906"/></g><!--class Liste?Voir--><g id="elem_Liste&#192;Voir"><rect codeLine="71" fill="#F1F1F1" height="64.2969" id="Liste&#192;Voir" rx="2.5" ry="2.5" style="stroke:#181818;stroke-width:0.5;" width="141.042" x="279.5" y="703"/><ellipse cx="311.8659" cy="719" fill="#ADD1B2" rx="11" ry="11" style="stroke:#181818;stroke-width:1;"/><path d="M314.8346,724.6406 Q314.2565,724.9375 313.6159,725.0781 Q312.9752,725.2344 312.2721,725.2344 Q309.7721,725.2344 308.444,723.5938 Q307.1315,721.9375 307.1315,718.8125 Q307.1315,715.6875 308.444,714.0313 Q309.7721,712.375 312.2721,712.375 Q312.9752,712.375 313.6159,712.5313 Q314.2721,712.6875 314.8346,712.9844 L314.8346,715.7031 Q314.2096,715.125 313.6159,714.8594 Q313.0221,714.5781 312.3971,714.5781 Q311.0534,714.5781 310.3659,715.6563 Q309.6784,716.7188 309.6784,718.8125 Q309.6784,720.9063 310.3659,721.9844 Q311.0534,723.0469 312.3971,723.0469 Q313.0221,723.0469 313.6159,722.7813 Q314.2096,722.5 314.8346,721.9219 L314.8346,724.6406 Z " fill="#000000"/><text fill="#000000" font-family="sans-serif" font-size="14" lengthAdjust="spacing" textLength="70.4512" x="329.725" y="723.8467">Liste&#192;Voir</text><line style="stroke:#181818;stroke-width:0.5;" x1="280.5" x2="419.542" y1="735" y2="735"/><rect fill="transparent" height="6" style="stroke:#C82930;stroke-width:1;" width="6" x="287.5" y="745.6484"/><text fill="#000000" font-family="sans-serif" font-size="14" lengthAdjust="spacing" textLength="115.042" x="299.5" y="751.9951">dateAjout : Date</text><line style="stroke:#181818;stroke-width:0.5;" x1="280.5" x2="419.542" y1="759.2969" y2="759.2969"/></g><!--reverse link Utilisateur to Client--><g id="link_Utilisateur_Client"><path codeLine="17" d="M612.4116,133.1844 C592.4816,153.7444 583.15,163.37 566.09,180.96 " fill="transparent" id="Utilisateur-backto-Client" style="stroke:#181818;stroke-width:1;"/><polygon fill="transparent" points="624.94,120.26,608.1035,129.0083,616.7198,137.3605,624.94,120.26" style="stroke:#181818;stroke-width:1;"/></g><!--reverse link Utilisateur to Administrateur--><g id="link_Utilisateur_Administrateur"><path codeLine="18" d="M704.4512,137.3131 C729.4512,211.3131 765.42,329.5 781,449 C787.51,498.92 782.21,557.47 777.68,592.47 " fill="transparent" id="Utilisateur-backto-Administrateur" style="stroke:#181818;stroke-width:1;"/><polygon fill="transparent" points="698.69,120.26,698.7668,139.2335,710.1356,135.3927,698.69,120.26" style="stroke:#181818;stroke-width:1;"/></g><!--reverse link Client to Administrateur--><g id="link_Client_Administrateur"><path codeLine="19" d="M620.9774,254.0871 C635.6674,262.5271 634.8,263.58 647,275 C740.45,362.51 764.75,524.56 770.94,592.38 " fill="transparent" id="Client-backto-Administrateur" style="stroke:#181818;stroke-width:1;"/><polygon fill="transparent" points="605.37,245.12,617.9884,259.2896,623.9664,248.8846,605.37,245.12" style="stroke:#181818;stroke-width:1;"/></g><!--link Client to R?servation--><g id="link_Client_R&#233;servation"><path codeLine="77" d="M581.5,245.07 C605.27,264.16 632.03,290.9 645,322 C661.59,361.79 655.45,377.17 645,419 C630.57,476.77 596.39,536.09 570.12,575.86 " fill="transparent" id="Client-R&#233;servation" style="stroke:#181818;stroke-width:1;"/><text fill="#000000" font-family="sans-serif" font-size="13" lengthAdjust="spacing" textLength="8.271" x="582.1347" y="265.2813">1</text><text fill="#000000" font-family="sans-serif" font-size="13" lengthAdjust="spacing" textLength="23.0356" x="550.3173" y="565.0492">0..*</text></g><!--link R?servation to Film--><g id="link_R&#233;servation_Film"><path codeLine="78" d="M538.12,673.02 C541.55,749.69 548.31,900.79 552.15,986.75 " fill="transparent" id="R&#233;servation-Film" style="stroke:#181818;stroke-width:1;"/><text fill="#000000" font-family="sans-serif" font-size="13" lengthAdjust="spacing" textLength="8.271" x="543.3918" y="975.8953">1</text></g><!--link Client to Paiement--><g id="link_Client_Paiement"><path codeLine="80" d="M536,245.09 C536,267.07 536,296.95 536,321.91 " fill="transparent" id="Client-Paiement" style="stroke:#181818;stroke-width:1;"/><text fill="#000000" font-family="sans-serif" font-size="13" lengthAdjust="spacing" textLength="8.271" x="527.2503" y="265.3054">1</text><text fill="#000000" font-family="sans-serif" font-size="13" lengthAdjust="spacing" textLength="23.0356" x="511.4085" y="311.1063">0..*</text></g><!--link Paiement to R?servation--><g id="link_Paiement_R&#233;servation"><path codeLine="81" d="M536,419.2 C536,464.14 536,531.12 536,576 " fill="transparent" id="Paiement-R&#233;servation" style="stroke:#181818;stroke-width:1;"/><text fill="#000000" font-family="sans-serif" font-size="13" lengthAdjust="spacing" textLength="8.271" x="527.4469" y="564.8597">1</text></g><!--link R?servation to Billet--><g id="link_R&#233;servation_Billet"><path codeLine="83" d="M487.17,673.12 C478.37,682.66 469.59,692.88 462,703 C442.29,729.29 449.29,744.88 425,767 C411.93,778.91 386.4084,792.0457 353.3784,806.6357 " fill="transparent" id="R&#233;servation-to-Billet" style="stroke:#181818;stroke-width:1;"/><polygon fill="#181818" points="347.89,809.06,357.7388,809.0824,352.4637,807.0397,354.5064,801.7646,347.89,809.06" style="stroke:#181818;stroke-width:1;"/><text fill="#000000" font-family="sans-serif" font-size="13" lengthAdjust="spacing" textLength="45.8301" x="463" y="739.5669">g&#233;n&#232;re</text><text fill="#000000" font-family="sans-serif" font-size="13" lengthAdjust="spacing" textLength="23.0356" x="355.2402" y="802.9692">1..*</text></g><!--link R?servation to S?ance--><g id="link_R&#233;servation_S&#233;ance"><path codeLine="84" d="M585.68,673.09 C623.42,709.23 671.067,754.8696 710.697,792.8296 " fill="transparent" id="R&#233;servation-to-S&#233;ance" style="stroke:#181818;stroke-width:1;"/><polygon fill="#181818" points="715.03,796.98,711.2975,787.8658,711.4192,793.5214,705.7637,793.6431,715.03,796.98" style="stroke:#181818;stroke-width:1;"/><text fill="#000000" font-family="sans-serif" font-size="13" lengthAdjust="spacing" textLength="60.0679" x="684" y="739.5669">concerne</text><text fill="#000000" font-family="sans-serif" font-size="13" lengthAdjust="spacing" textLength="8.271" x="699.1229" y="785.8408">1</text></g><!--link Billet to Client--><g id="link_Billet_Client"><path codeLine="85" d="M231.79,804.75 C222.02,727.7 210.02,572.14 250,449 C279.97,356.68 301.46,329.18 382,275 C405.03,259.51 426.9634,249.1404 452.3534,239.6004 " fill="transparent" id="Billet-to-Client" style="stroke:#181818;stroke-width:1;"/><polygon fill="#181818" points="457.97,237.49,448.1382,236.9112,453.2895,239.2486,450.952,244.4,457.97,237.49" style="stroke:#181818;stroke-width:1;"/><text fill="#000000" font-family="sans-serif" font-size="13" lengthAdjust="spacing" textLength="81.2373" x="251" y="502.0669">estUtilis&#233;Par</text><text fill="#000000" font-family="sans-serif" font-size="13" lengthAdjust="spacing" textLength="8.271" x="441.5483" y="236.3005">1</text></g><!--link Billet to Si?ge--><g id="link_Billet_Si&#232;ge"><path codeLine="86" d="M253.69,902.37 C276.83,977.77 319.5591,1117.0242 341.0491,1187.0242 " fill="transparent" id="Billet-to-Si&#232;ge" style="stroke:#181818;stroke-width:1;"/><polygon fill="#181818" points="342.81,1192.76,343.9925,1182.9824,341.3426,1187.9802,336.3448,1185.3302,342.81,1192.76" style="stroke:#181818;stroke-width:1;"/><text fill="#000000" font-family="sans-serif" font-size="13" lengthAdjust="spacing" textLength="53.3838" x="319" y="1056.0669">contient</text><text fill="#000000" font-family="sans-serif" font-size="13" lengthAdjust="spacing" textLength="23.0356" x="315.8713" y="1181.8818">1..*</text></g><!--link S?ance to Film--><g id="link_S&#233;ance_Film"><path codeLine="87" d="M711.11,910.14 C684.55,934.02 657.8315,958.0482 630.3515,982.7582 " fill="transparent" id="S&#233;ance-to-Film" style="stroke:#181818;stroke-width:1;"/><polygon fill="#181818" points="625.89,986.77,635.2569,983.7266,629.608,983.4268,629.9078,977.7779,625.89,986.77" style="stroke:#181818;stroke-width:1;"/><text fill="#000000" font-family="sans-serif" font-size="13" lengthAdjust="spacing" textLength="51.3525" x="679" y="953.0669">projette</text><text fill="#000000" font-family="sans-serif" font-size="13" lengthAdjust="spacing" textLength="8.271" x="625.1971" y="975.9175">1</text></g><!--link S?ance to Salle--><g id="link_S&#233;ance_Salle"><path codeLine="88" d="M773.28,910.14 C773.43,939.34 773.5778,968.7501 773.7278,996.7001 " fill="transparent" id="S&#233;ance-to-Salle" style="stroke:#181818;stroke-width:1;"/><polygon fill="#181818" points="773.76,1002.7,777.7116,993.6787,773.7332,997.7001,769.7118,993.7216,773.76,1002.7" style="stroke:#181818;stroke-width:1;"/><text fill="#000000" font-family="sans-serif" font-size="13" lengthAdjust="spacing" textLength="68.0469" x="775" y="953.0669">aLieuDans</text><text fill="#000000" font-family="sans-serif" font-size="13" lengthAdjust="spacing" textLength="8.271" x="765.1484" y="991.8667">1</text></g><!--link Salle to Si?ge--><g id="link_Salle_Si&#232;ge"><path codeLine="89" d="M681.35,1098.75 C668.86,1104.69 656.16,1110.59 644,1116 C583.09,1143.11 519.4252,1168.9278 463.9852,1190.6878 " fill="transparent" id="Salle-to-Si&#232;ge" style="stroke:#181818;stroke-width:1;"/><polygon fill="#181818" points="458.4,1192.88,468.2392,1193.3152,463.0543,1191.0532,465.3163,1185.8683,458.4,1192.88" style="stroke:#181818;stroke-width:1;"/><text fill="#000000" font-family="sans-serif" font-size="13" lengthAdjust="spacing" textLength="53.3838" x="575" y="1159.0669">contient</text><text fill="#000000" font-family="sans-serif" font-size="13" lengthAdjust="spacing" textLength="23.0356" x="450.6059" y="1182.0217">1..*</text></g><!--link Client to Notification--><g id="link_Client_Notification"><path codeLine="90" d="M457.72,218.05 C365.29,224.39 218.92,239.79 178,275 C127.36,318.58 112.227,392.0259 107.477,442.9759 " fill="transparent" id="Client-to-Notification" style="stroke:#181818;stroke-width:1;"/><polygon fill="#181818" points="106.92,448.95,111.7382,440.3602,107.3841,443.9716,103.7727,439.6176,106.92,448.95" style="stroke:#181818;stroke-width:1;"/><text fill="#000000" font-family="sans-serif" font-size="13" lengthAdjust="spacing" textLength="37.1528" x="179" y="288.0669">re&#231;oit</text><text fill="#000000" font-family="sans-serif" font-size="13" lengthAdjust="spacing" textLength="23.0356" x="82.5289" y="437.8023">0..*</text></g><!--link Notification to Billet--><g id="link_Notification_Billet"><path codeLine="91" d="M123.07,546.24 C148.72,613.99 193.2657,731.6886 218.8757,799.3386 " fill="transparent" id="Notification-to-Billet" style="stroke:#181818;stroke-width:1;"/><polygon fill="#181818" points="221,804.95,221.5545,795.1168,219.2298,800.2739,214.0727,797.9491,221,804.95" style="stroke:#181818;stroke-width:1;"/><text fill="#000000" font-family="sans-serif" font-size="13" lengthAdjust="spacing" textLength="43.4941" x="171" y="629.0669">envoie</text><text fill="#000000" font-family="sans-serif" font-size="13" lengthAdjust="spacing" textLength="24.8066" x="192.6839" y="793.8023">0..1</text></g><!--link Client to Liste?Voir--><g id="link_Client_Liste&#192;Voir"><path codeLine="92" d="M457.66,243.8 C423.34,261.15 386.31,286.69 366,322 C328.89,386.54 341.0927,612.2052 347.1327,696.8052 " fill="transparent" id="Client-to-Liste&#192;Voir" style="stroke:#181818;stroke-width:1;"/><polygon fill="#181818" points="347.56,702.79,350.9089,693.528,347.2039,697.8027,342.9292,694.0977,347.56,702.79" style="stroke:#181818;stroke-width:1;"/><text fill="#000000" font-family="sans-serif" font-size="13" lengthAdjust="spacing" textLength="58.7412" x="367" y="375.0669">compose</text><text fill="#000000" font-family="sans-serif" font-size="13" lengthAdjust="spacing" textLength="23.0356" x="321.8149" y="692.0228">0..*</text></g><!--link Liste?Voir to Film--><g id="link_Liste&#192;Voir_Film"><path codeLine="93" d="M365.01,767.06 C382.6,802.57 413.41,861.99 445,910 C462.11,936.01 478.9979,958.5599 497.7479,982.0599 " fill="transparent" id="Liste&#192;Voir-to-Film" style="stroke:#181818;stroke-width:1;"/><polygon fill="#181818" points="501.49,986.75,499.0036,977.2202,498.3716,982.8416,492.7502,982.2096,501.49,986.75" style="stroke:#181818;stroke-width:1;"/><text fill="#000000" font-family="sans-serif" font-size="13" lengthAdjust="spacing" textLength="62.645" x="446" y="858.0669">r&#233;f&#233;rence</text><text fill="#000000" font-family="sans-serif" font-size="13" lengthAdjust="spacing" textLength="8.271" x="487.1909" y="975.8953">1</text></g><!--link Administrateur to Film--><g id="link_Administrateur_Film"><path codeLine="94" d="M743.75,656.79 C714.4,689.59 669.55,743.67 641,797 C608.26,858.15 586.0253,928.3651 571.8653,981.1251 " fill="transparent" id="Administrateur-to-Film" style="stroke:#181818;stroke-width:1;"/><polygon fill="#181818" points="570.31,986.92,576.5062,979.2645,571.6061,982.0909,568.7796,977.1908,570.31,986.92" style="stroke:#181818;stroke-width:1;"/><text fill="#000000" font-family="sans-serif" font-size="13" lengthAdjust="spacing" textLength="29.5928" x="642" y="858.0669">g&#232;re</text><text fill="#000000" font-family="sans-serif" font-size="13" lengthAdjust="spacing" textLength="23.0356" x="573.2205" y="976.0839">0..*</text></g><!--link Administrateur to Salle--><g id="link_Administrateur_Salle"><path codeLine="95" d="M818.74,656.71 C833.88,669.34 849.31,685.16 859,703 C903.04,784.05 894.03,819.96 874,910 C866.26,944.78 848.0077,973.0184 826.5177,998.1684 " fill="transparent" id="Administrateur-to-Salle" style="stroke:#181818;stroke-width:1;"/><polygon fill="#181818" points="822.62,1002.73,831.5076,998.4862,825.8681,998.9287,825.4256,993.2892,822.62,1002.73" style="stroke:#181818;stroke-width:1;"/><text fill="#000000" font-family="sans-serif" font-size="13" lengthAdjust="spacing" textLength="29.5928" x="892" y="858.0669">g&#232;re</text><text fill="#000000" font-family="sans-serif" font-size="13" lengthAdjust="spacing" textLength="23.0356" x="804.8081" y="991.901">0..*</text></g><!--link Administrateur to S?ance--><g id="link_Administrateur_S&#233;ance"><path codeLine="96" d="M773,656.59 C773,692.65 773,746.8 773,790.95 " fill="transparent" id="Administrateur-to-S&#233;ance" style="stroke:#181818;stroke-width:1;"/><polygon fill="#181818" points="773,796.95,777,787.95,773,791.95,769,787.95,773,796.95" style="stroke:#181818;stroke-width:1;"/><text fill="#000000" font-family="sans-serif" font-size="13" lengthAdjust="spacing" textLength="76.4385" x="774" y="739.5669">programme</text><text fill="#000000" font-family="sans-serif" font-size="13" lengthAdjust="spacing" textLength="23.0356" x="748.5443" y="785.807">0..*</text></g><!--SRC=[XLHTQzim57tNhn1v6MoahAyX19AcWR5IidJhQr7j6-yMIpAIN1ZROFzcpU_m7vi-hDYotUubmKVdddjrxjLbZzeebXcQbKnh-irWYPePg1NzIIYXT4w5v7H1xun2KNYWKirf109dMAOGbsOBUoiB7VwRa93fgaGGnYMX7oZc3rduNj1FzdUvt7zUhJhoEkSeq5KQAmj1pE6ZcFubbh_cypRN64zbILlIr55RnmvBtcK_kgyakRkrGQCWDQ80COJosfe88Te3zbFNl3bDM7MmHw2UcK4fkkmAEd1KH6xBFYI4hKNyaJRCr6OYpPuXyAGdLKH6-bmAm_p1hfJCl2rynyeIMbLHSr0o82FLqL1bh68P6k-ACwgJR4vCPD2Lgi5_JnhHl_rtsqq7V4KUW9A9efuQq0tQ6arIziDZm2AvdoYJENmv3Dw4DlUinDp9RwGiU_LZyrAadZneX08cjPkJjNQYn5jfy8ZPO3147nsFvuzgE8hMcslnB37wTDQ_iGy0cZ_t4iER2zpra_HjZjntTAsrpD0dr7OxeCYmOYLe4f_Kx796xQEQVRouU3zBvfaam-qubkgUsIknSKZ9ULhRc4HqgBgo51- -YGqix0fhNXHCCMVdyLhOjjf_9O2qaP5n5TULxN7OAyrfprHAyodRLdifu_TGL8zQkx17AYMVm5XFX-VnjR0RX7hBX2O1UJD9Mw3d1EjkqxbGqFoLQ4W2H_fbpofmim4JWltnS9bv9JMGFZgueTrnn-Qam5wE35PwJxOb5xuzhzEYA__bdNjf3IuKunp-0G00]--></g></svg>