<svg xmlns="http://www.w3.org/2000/svg" xmlns:xlink="http://www.w3.org/1999/xlink" contentStyleType="text/css" data-diagram-type="CLASS" height="1201px" preserveAspectRatio="none" style="width:1095px;height:1201px;background:#FFFFFF;" version="1.1" viewBox="0 0 1095 1201" width="1095px" zoomAndPan="magnify"><defs/><g><!--class Cinema--><g id="elem_Cinema"><rect codeLine="3" fill="#F1F1F1" height="64.2969" id="Cinema" rx="2.5" ry="2.5" style="stroke:#181818;stroke-width:0.5;" width="112.4746" x="924" y="7"/><ellipse cx="951.1979" cy="23" fill="#ADD1B2" rx="11" ry="11" style="stroke:#181818;stroke-width:1;"/><path d="M954.1667,28.6406 Q953.5885,28.9375 952.9479,29.0781 Q952.3073,29.2344 951.6042,29.2344 Q949.1042,29.2344 947.776,27.5938 Q946.4635,25.9375 946.4635,22.8125 Q946.4635,19.6875 947.776,18.0313 Q949.1042,16.375 951.6042,16.375 Q952.3073,16.375 952.9479,16.5313 Q953.6042,16.6875 954.1667,16.9844 L954.1667,19.7031 Q953.5417,19.125 952.9479,18.8594 Q952.3542,18.5781 951.7292,18.5781 Q950.3854,18.5781 949.6979,19.6563 Q949.0104,20.7188 949.0104,22.8125 Q949.0104,24.9063 949.6979,25.9844 Q950.3854,27.0469 951.7292,27.0469 Q952.3542,27.0469 952.9479,26.7813 Q953.5417,26.5 954.1667,25.9219 L954.1667,28.6406 Z " fill="#000000"/><text fill="#000000" font-family="sans-serif" font-size="14" lengthAdjust="spacing" textLength="53.3682" x="967.9085" y="27.8467">Cinema</text><line style="stroke:#181818;stroke-width:0.5;" x1="925" x2="1035.4746" y1="39" y2="39"/><ellipse cx="935" cy="52.6484" fill="transparent" rx="3" ry="3" style="stroke:#038048;stroke-width:1;"/><text fill="#000000" font-family="sans-serif" font-size="14" lengthAdjust="spacing" textLength="86.4746" x="944" y="55.9951">nom : String</text><line style="stroke:#181818;stroke-width:0.5;" x1="925" x2="1035.4746" y1="63.2969" y2="63.2969"/></g><!--class Utilisateur--><g id="elem_Utilisateur"><rect codeLine="7" fill="#F1F1F1" height="113.1875" id="Utilisateur" rx="2.5" ry="2.5" style="stroke:#181818;stroke-width:0.5;" width="168.707" x="582.5" y="132"/><ellipse cx="626.6138" cy="148" fill="#A9DCDF" rx="11" ry="11" style="stroke:#181818;stroke-width:1;"/><path d="M626.7231,143.3438 L625.5669,148.4219 L627.895,148.4219 L626.7231,143.3438 Z M625.2388,141.1094 L628.2231,141.1094 L631.5825,153.5 L629.1294,153.5 L628.3638,150.4375 L625.0825,150.4375 L624.3325,153.5 L621.895,153.5 L625.2388,141.1094 Z " fill="#000000"/><text fill="#000000" font-family="sans-serif" font-size="14" font-style="italic" lengthAdjust="spacing" textLength="72.0098" x="647.0835" y="152.8467">Utilisateur</text><line style="stroke:#181818;stroke-width:0.5;" x1="583.5" x2="750.207" y1="164" y2="164"/><rect fill="transparent" height="6" style="stroke:#C82930;stroke-width:1;" width="6" x="590.5" y="174.6484"/><text fill="#000000" font-family="sans-serif" font-size="14" lengthAdjust="spacing" textLength="86.4746" x="602.5" y="180.9951">nom : String</text><rect fill="transparent" height="6" style="stroke:#C82930;stroke-width:1;" width="6" x="590.5" y="190.9453"/><text fill="#000000" font-family="sans-serif" font-size="14" lengthAdjust="spacing" textLength="109.7305" x="602.5" y="197.292">pr&#233;nom : String</text><rect fill="transparent" height="6" style="stroke:#C82930;stroke-width:1;" width="6" x="590.5" y="207.2422"/><text fill="#000000" font-family="sans-serif" font-size="14" lengthAdjust="spacing" textLength="94.0078" x="602.5" y="213.5889">email : String</text><rect fill="transparent" height="6" style="stroke:#C82930;stroke-width:1;" width="6" x="590.5" y="223.5391"/><text fill="#000000" font-family="sans-serif" font-size="14" lengthAdjust="spacing" textLength="142.707" x="602.5" y="229.8857">motDePasse : String</text><line style="stroke:#181818;stroke-width:0.5;" x1="583.5" x2="750.207" y1="237.1875" y2="237.1875"/></g><!--class Client--><g id="elem_Client"><rect codeLine="14" fill="#F1F1F1" height="64.2969" id="Client" rx="2.5" ry="2.5" style="stroke:#181818;stroke-width:0.5;" width="155.541" x="383" y="306"/><ellipse cx="436.2554" cy="322" fill="#ADD1B2" rx="11" ry="11" style="stroke:#181818;stroke-width:1;"/><path d="M439.2241,327.6406 Q438.646,327.9375 438.0054,328.0781 Q437.3647,328.2344 436.6616,328.2344 Q434.1616,328.2344 432.8335,326.5938 Q431.521,324.9375 431.521,321.8125 Q431.521,318.6875 432.8335,317.0313 Q434.1616,315.375 436.6616,315.375 Q437.3647,315.375 438.0054,315.5313 Q438.6616,315.6875 439.2241,315.9844 L439.2241,318.7031 Q438.5991,318.125 438.0054,317.8594 Q437.4116,317.5781 436.7866,317.5781 Q435.4429,317.5781 434.7554,318.6563 Q434.0679,319.7188 434.0679,321.8125 Q434.0679,323.9063 434.7554,324.9844 Q435.4429,326.0469 436.7866,326.0469 Q437.4116,326.0469 438.0054,325.7813 Q438.5991,325.5 439.2241,324.9219 L439.2241,327.6406 Z " fill="#000000"/><text fill="#000000" font-family="sans-serif" font-size="14" lengthAdjust="spacing" textLength="40.5303" x="456.7554" y="326.8467">Client</text><line style="stroke:#181818;stroke-width:0.5;" x1="384" x2="537.541" y1="338" y2="338"/><ellipse cx="394" cy="351.6484" fill="transparent" rx="3" ry="3" style="stroke:#038048;stroke-width:1;"/><text fill="#000000" font-family="sans-serif" font-size="14" lengthAdjust="spacing" textLength="129.541" x="403" y="354.9951">id_client : Int &#171;PK&#187;</text><line style="stroke:#181818;stroke-width:0.5;" x1="384" x2="537.541" y1="362.2969" y2="362.2969"/></g><!--class Administrateur--><g id="elem_Administrateur"><rect codeLine="18" fill="#F1F1F1" height="64.2969" id="Administrateur" rx="2.5" ry="2.5" style="stroke:#181818;stroke-width:0.5;" width="160.9551" x="586.5" y="463.5"/><ellipse cx="612.4582" cy="479.5" fill="#ADD1B2" rx="11" ry="11" style="stroke:#181818;stroke-width:1;"/><path d="M615.427,485.1406 Q614.8488,485.4375 614.2082,485.5781 Q613.5676,485.7344 612.8645,485.7344 Q610.3645,485.7344 609.0363,484.0938 Q607.7238,482.4375 607.7238,479.3125 Q607.7238,476.1875 609.0363,474.5313 Q610.3645,472.875 612.8645,472.875 Q613.5676,472.875 614.2082,473.0313 Q614.8645,473.1875 615.427,473.4844 L615.427,476.2031 Q614.802,475.625 614.2082,475.3594 Q613.6145,475.0781 612.9895,475.0781 Q611.6457,475.0781 610.9582,476.1563 Q610.2707,477.2188 610.2707,479.3125 Q610.2707,481.4063 610.9582,482.4844 Q611.6457,483.5469 612.9895,483.5469 Q613.6145,483.5469 614.2082,483.2813 Q614.802,483 615.427,482.4219 L615.427,485.1406 Z " fill="#000000"/><text fill="#000000" font-family="sans-serif" font-size="14" lengthAdjust="spacing" textLength="104.6035" x="628.8934" y="484.3467">Administrateur</text><line style="stroke:#181818;stroke-width:0.5;" x1="587.5" x2="746.4551" y1="495.5" y2="495.5"/><ellipse cx="597.5" cy="509.1484" fill="transparent" rx="3" ry="3" style="stroke:#038048;stroke-width:1;"/><text fill="#000000" font-family="sans-serif" font-size="14" lengthAdjust="spacing" textLength="134.9551" x="606.5" y="512.4951">id_admin : Int &#171;PK&#187;</text><line style="stroke:#181818;stroke-width:0.5;" x1="587.5" x2="746.4551" y1="519.7969" y2="519.7969"/></g><!--class Film--><g id="elem_Film"><rect codeLine="26" fill="#F1F1F1" height="129.4844" id="Film" rx="2.5" ry="2.5" style="stroke:#181818;stroke-width:0.5;" width="143.4346" x="681.5" y="1065"/><ellipse cx="734.2324" cy="1081" fill="#ADD1B2" rx="11" ry="11" style="stroke:#181818;stroke-width:1;"/><path d="M737.2012,1086.6406 Q736.623,1086.9375 735.9824,1087.0781 Q735.3418,1087.2344 734.6387,1087.2344 Q732.1387,1087.2344 730.8105,1085.5938 Q729.498,1083.9375 729.498,1080.8125 Q729.498,1077.6875 730.8105,1076.0313 Q732.1387,1074.375 734.6387,1074.375 Q735.3418,1074.375 735.9824,1074.5313 Q736.6387,1074.6875 737.2012,1074.9844 L737.2012,1077.7031 Q736.5762,1077.125 735.9824,1076.8594 Q735.3887,1076.5781 734.7637,1076.5781 Q733.4199,1076.5781 732.7324,1077.6563 Q732.0449,1078.7188 732.0449,1080.8125 Q732.0449,1082.9063 732.7324,1083.9844 Q733.4199,1085.0469 734.7637,1085.0469 Q735.3887,1085.0469 735.9824,1084.7813 Q736.5762,1084.5 737.2012,1083.9219 L737.2012,1086.6406 Z " fill="#000000"/><text fill="#000000" font-family="sans-serif" font-size="14" lengthAdjust="spacing" textLength="29.4697" x="754.7324" y="1085.8467">Film</text><line style="stroke:#181818;stroke-width:0.5;" x1="682.5" x2="823.9346" y1="1097" y2="1097"/><ellipse cx="692.5" cy="1110.6484" fill="transparent" rx="3" ry="3" style="stroke:#038048;stroke-width:1;"/><text fill="#000000" font-family="sans-serif" font-size="14" lengthAdjust="spacing" textLength="117.4346" x="701.5" y="1113.9951">id_film : Int &#171;PK&#187;</text><rect fill="transparent" height="6" style="stroke:#C82930;stroke-width:1;" width="6" x="689.5" y="1123.9453"/><text fill="#000000" font-family="sans-serif" font-size="14" lengthAdjust="spacing" textLength="84.6357" x="701.5" y="1130.292">titre : String</text><rect fill="transparent" height="6" style="stroke:#C82930;stroke-width:1;" width="6" x="689.5" y="1140.2422"/><text fill="#000000" font-family="sans-serif" font-size="14" lengthAdjust="spacing" textLength="96.1406" x="701.5" y="1146.5889">genre : String</text><rect fill="transparent" height="6" style="stroke:#C82930;stroke-width:1;" width="6" x="689.5" y="1156.5391"/><text fill="#000000" font-family="sans-serif" font-size="14" lengthAdjust="spacing" textLength="72.8506" x="701.5" y="1162.8857">dur&#233;e : Int</text><rect fill="transparent" height="6" style="stroke:#C82930;stroke-width:1;" width="6" x="689.5" y="1172.8359"/><text fill="#000000" font-family="sans-serif" font-size="14" lengthAdjust="spacing" textLength="108.1855" x="701.5" y="1179.1826">r&#233;sum&#233; : String</text><line style="stroke:#181818;stroke-width:0.5;" x1="682.5" x2="823.9346" y1="1186.4844" y2="1186.4844"/></g><!--class R?servation--><g id="elem_R&#233;servation"><rect codeLine="34" fill="#F1F1F1" height="96.8906" id="R&#233;servation" rx="2.5" ry="2.5" style="stroke:#181818;stroke-width:0.5;" width="196.8027" x="323.5" y="701"/><ellipse cx="375.8086" cy="717" fill="#ADD1B2" rx="11" ry="11" style="stroke:#181818;stroke-width:1;"/><path d="M378.7773,722.6406 Q378.1992,722.9375 377.5586,723.0781 Q376.918,723.2344 376.2148,723.2344 Q373.7148,723.2344 372.3867,721.5938 Q371.0742,719.9375 371.0742,716.8125 Q371.0742,713.6875 372.3867,712.0313 Q373.7148,710.375 376.2148,710.375 Q376.918,710.375 377.5586,710.5313 Q378.2148,710.6875 378.7773,710.9844 L378.7773,713.7031 Q378.1523,713.125 377.5586,712.8594 Q376.9648,712.5781 376.3398,712.5781 Q374.9961,712.5781 374.3086,713.6563 Q373.6211,714.7188 373.6211,716.8125 Q373.6211,718.9063 374.3086,719.9844 Q374.9961,721.0469 376.3398,721.0469 Q376.9648,721.0469 377.5586,720.7813 Q378.1523,720.5 378.7773,719.9219 L378.7773,722.6406 Z " fill="#000000"/><text fill="#000000" font-family="sans-serif" font-size="14" lengthAdjust="spacing" textLength="83.6855" x="396.3086" y="721.8467">R&#233;servation</text><line style="stroke:#181818;stroke-width:0.5;" x1="324.5" x2="519.3027" y1="733" y2="733"/><ellipse cx="334.5" cy="746.6484" fill="transparent" rx="3" ry="3" style="stroke:#038048;stroke-width:1;"/><text fill="#000000" font-family="sans-serif" font-size="14" lengthAdjust="spacing" textLength="170.8027" x="343.5" y="749.9951">id_reservation : Int &#171;PK&#187;</text><rect fill="transparent" height="6" style="stroke:#C82930;stroke-width:1;" width="6" x="331.5" y="759.9453"/><text fill="#000000" font-family="sans-serif" font-size="14" lengthAdjust="spacing" textLength="162.333" x="343.5" y="766.292">dateReservation : Date</text><rect fill="transparent" height="6" style="stroke:#C82930;stroke-width:1;" width="6" x="331.5" y="776.2422"/><text fill="#000000" font-family="sans-serif" font-size="14" lengthAdjust="spacing" textLength="96.6123" x="343.5" y="782.5889">statut : String</text><line style="stroke:#181818;stroke-width:0.5;" x1="324.5" x2="519.3027" y1="789.8906" y2="789.8906"/></g><!--class Paiement--><g id="elem_Paiement"><rect codeLine="40" fill="#F1F1F1" height="96.8906" id="Paiement" rx="2.5" ry="2.5" style="stroke:#181818;stroke-width:0.5;" width="183.6709" x="296" y="447"/><ellipse cx="350.5166" cy="463" fill="#ADD1B2" rx="11" ry="11" style="stroke:#181818;stroke-width:1;"/><path d="M353.4854,468.6406 Q352.9072,468.9375 352.2666,469.0781 Q351.626,469.2344 350.9229,469.2344 Q348.4229,469.2344 347.0947,467.5938 Q345.7822,465.9375 345.7822,462.8125 Q345.7822,459.6875 347.0947,458.0313 Q348.4229,456.375 350.9229,456.375 Q351.626,456.375 352.2666,456.5313 Q352.9229,456.6875 353.4854,456.9844 L353.4854,459.7031 Q352.8604,459.125 352.2666,458.8594 Q351.6729,458.5781 351.0479,458.5781 Q349.7041,458.5781 349.0166,459.6563 Q348.3291,460.7188 348.3291,462.8125 Q348.3291,464.9063 349.0166,465.9844 Q349.7041,467.0469 351.0479,467.0469 Q351.6729,467.0469 352.2666,466.7813 Q352.8604,466.5 353.4854,465.9219 L353.4854,468.6406 Z " fill="#000000"/><text fill="#000000" font-family="sans-serif" font-size="14" lengthAdjust="spacing" textLength="66.1377" x="371.0166" y="467.8467">Paiement</text><line style="stroke:#181818;stroke-width:0.5;" x1="297" x2="478.6709" y1="479" y2="479"/><ellipse cx="307" cy="492.6484" fill="transparent" rx="3" ry="3" style="stroke:#038048;stroke-width:1;"/><text fill="#000000" font-family="sans-serif" font-size="14" lengthAdjust="spacing" textLength="157.6709" x="316" y="495.9951">id_paiement : Int &#171;PK&#187;</text><rect fill="transparent" height="6" style="stroke:#C82930;stroke-width:1;" width="6" x="304" y="505.9453"/><text fill="#000000" font-family="sans-serif" font-size="14" lengthAdjust="spacing" textLength="107.7002" x="316" y="512.292">montant : Float</text><rect fill="transparent" height="6" style="stroke:#C82930;stroke-width:1;" width="6" x="304" y="522.2422"/><text fill="#000000" font-family="sans-serif" font-size="14" lengthAdjust="spacing" textLength="96.6123" x="316" y="528.5889">statut : String</text><line style="stroke:#181818;stroke-width:0.5;" x1="297" x2="478.6709" y1="535.8906" y2="535.8906"/></g><!--class Salle--><g id="elem_Salle"><rect codeLine="46" fill="#F1F1F1" height="96.8906" id="Salle" rx="2.5" ry="2.5" style="stroke:#181818;stroke-width:0.5;" width="185.4893" x="778.5" y="701"/><ellipse cx="850.0654" cy="717" fill="#ADD1B2" rx="11" ry="11" style="stroke:#181818;stroke-width:1;"/><path d="M853.0342,722.6406 Q852.4561,722.9375 851.8154,723.0781 Q851.1748,723.2344 850.4717,723.2344 Q847.9717,723.2344 846.6436,721.5938 Q845.3311,719.9375 845.3311,716.8125 Q845.3311,713.6875 846.6436,712.0313 Q847.9717,710.375 850.4717,710.375 Q851.1748,710.375 851.8154,710.5313 Q852.4717,710.6875 853.0342,710.9844 L853.0342,713.7031 Q852.4092,713.125 851.8154,712.8594 Q851.2217,712.5781 850.5967,712.5781 Q849.2529,712.5781 848.5654,713.6563 Q847.8779,714.7188 847.8779,716.8125 Q847.8779,718.9063 848.5654,719.9844 Q849.2529,721.0469 850.5967,721.0469 Q851.2217,721.0469 851.8154,720.7813 Q852.4092,720.5 853.0342,719.9219 L853.0342,722.6406 Z " fill="#000000"/><text fill="#000000" font-family="sans-serif" font-size="14" lengthAdjust="spacing" textLength="33.8584" x="870.5654" y="721.8467">Salle</text><line style="stroke:#181818;stroke-width:0.5;" x1="779.5" x2="962.9893" y1="733" y2="733"/><ellipse cx="789.5" cy="746.6484" fill="transparent" rx="3" ry="3" style="stroke:#038048;stroke-width:1;"/><text fill="#000000" font-family="sans-serif" font-size="14" lengthAdjust="spacing" textLength="159.4893" x="798.5" y="749.9951">numeroSalle : Int &#171;PK&#187;</text><rect fill="transparent" height="6" style="stroke:#C82930;stroke-width:1;" width="6" x="786.5" y="759.9453"/><text fill="#000000" font-family="sans-serif" font-size="14" lengthAdjust="spacing" textLength="86.4746" x="798.5" y="766.292">nom : String</text><rect fill="transparent" height="6" style="stroke:#C82930;stroke-width:1;" width="6" x="786.5" y="776.2422"/><text fill="#000000" font-family="sans-serif" font-size="14" lengthAdjust="spacing" textLength="91.54" x="798.5" y="782.5889">capacit&#233; : Int</text><line style="stroke:#181818;stroke-width:0.5;" x1="779.5" x2="962.9893" y1="789.8906" y2="789.8906"/></g><!--class S?ance--><g id="elem_S&#233;ance"><rect codeLine="52" fill="#F1F1F1" height="113.1875" id="S&#233;ance" rx="2.5" ry="2.5" style="stroke:#181818;stroke-width:0.5;" width="166.7588" x="792.5" y="875"/><ellipse cx="845.998" cy="891" fill="#ADD1B2" rx="11" ry="11" style="stroke:#181818;stroke-width:1;"/><path d="M848.9668,896.6406 Q848.3887,896.9375 847.748,897.0781 Q847.1074,897.2344 846.4043,897.2344 Q843.9043,897.2344 842.5762,895.5938 Q841.2637,893.9375 841.2637,890.8125 Q841.2637,887.6875 842.5762,886.0313 Q843.9043,884.375 846.4043,884.375 Q847.1074,884.375 847.748,884.5313 Q848.4043,884.6875 848.9668,884.9844 L848.9668,887.7031 Q848.3418,887.125 847.748,886.8594 Q847.1543,886.5781 846.5293,886.5781 Q845.1855,886.5781 844.498,887.6563 Q843.8105,888.7188 843.8105,890.8125 Q843.8105,892.9063 844.498,893.9844 Q845.1855,895.0469 846.5293,895.0469 Q847.1543,895.0469 847.748,894.7813 Q848.3418,894.5 848.9668,893.9219 L848.9668,896.6406 Z " fill="#000000"/><text fill="#000000" font-family="sans-serif" font-size="14" lengthAdjust="spacing" textLength="51.2627" x="866.498" y="895.8467">S&#233;ance</text><line style="stroke:#181818;stroke-width:0.5;" x1="793.5" x2="958.2588" y1="907" y2="907"/><ellipse cx="803.5" cy="920.6484" fill="transparent" rx="3" ry="3" style="stroke:#038048;stroke-width:1;"/><text fill="#000000" font-family="sans-serif" font-size="14" lengthAdjust="spacing" textLength="140.7588" x="812.5" y="923.9951">id_seance : Int &#171;PK&#187;</text><rect fill="transparent" height="6" style="stroke:#C82930;stroke-width:1;" width="6" x="800.5" y="933.9453"/><text fill="#000000" font-family="sans-serif" font-size="14" lengthAdjust="spacing" textLength="78.6475" x="812.5" y="940.292">date : Date</text><rect fill="transparent" height="6" style="stroke:#C82930;stroke-width:1;" width="6" x="800.5" y="950.2422"/><text fill="#000000" font-family="sans-serif" font-size="14" lengthAdjust="spacing" textLength="89.0381" x="812.5" y="956.5889">heure : Time</text><rect fill="transparent" height="6" style="stroke:#C82930;stroke-width:1;" width="6" x="800.5" y="966.5391"/><text fill="#000000" font-family="sans-serif" font-size="14" lengthAdjust="spacing" textLength="103.1133" x="812.5" y="972.8857">langue : String</text><line style="stroke:#181818;stroke-width:0.5;" x1="793.5" x2="958.2588" y1="980.1875" y2="980.1875"/></g><!--class Billet--><g id="elem_Billet"><rect codeLine="59" fill="#F1F1F1" height="96.8906" id="Billet" rx="2.5" ry="2.5" style="stroke:#181818;stroke-width:0.5;" width="216.5791" x="141.5" y="883"/><ellipse cx="227.8516" cy="899" fill="#ADD1B2" rx="11" ry="11" style="stroke:#181818;stroke-width:1;"/><path d="M230.8203,904.6406 Q230.2422,904.9375 229.6016,905.0781 Q228.9609,905.2344 228.2578,905.2344 Q225.7578,905.2344 224.4297,903.5938 Q223.1172,901.9375 223.1172,898.8125 Q223.1172,895.6875 224.4297,894.0313 Q225.7578,892.375 228.2578,892.375 Q228.9609,892.375 229.6016,892.5313 Q230.2578,892.6875 230.8203,892.9844 L230.8203,895.7031 Q230.1953,895.125 229.6016,894.8594 Q229.0078,894.5781 228.3828,894.5781 Q227.0391,894.5781 226.3516,895.6563 Q225.6641,896.7188 225.6641,898.8125 Q225.6641,900.9063 226.3516,901.9844 Q227.0391,903.0469 228.3828,903.0469 Q229.0078,903.0469 229.6016,902.7813 Q230.1953,902.5 230.8203,901.9219 L230.8203,904.6406 Z " fill="#000000"/><text fill="#000000" font-family="sans-serif" font-size="14" lengthAdjust="spacing" textLength="35.376" x="248.3516" y="903.8467">Billet</text><line style="stroke:#181818;stroke-width:0.5;" x1="142.5" x2="357.0791" y1="915" y2="915"/><ellipse cx="152.5" cy="928.6484" fill="transparent" rx="3" ry="3" style="stroke:#038048;stroke-width:1;"/><text fill="#000000" font-family="sans-serif" font-size="14" lengthAdjust="spacing" textLength="190.5791" x="161.5" y="931.9951">numero_billet : String &#171;PK&#187;</text><rect fill="transparent" height="6" style="stroke:#C82930;stroke-width:1;" width="6" x="149.5" y="941.9453"/><text fill="#000000" font-family="sans-serif" font-size="14" lengthAdjust="spacing" textLength="109.9082" x="161.5" y="948.292">codeQR : String</text><rect fill="transparent" height="6" style="stroke:#C82930;stroke-width:1;" width="6" x="149.5" y="958.2422"/><text fill="#000000" font-family="sans-serif" font-size="14" lengthAdjust="spacing" textLength="109.0742" x="161.5" y="964.5889">estValide : Bool</text><line style="stroke:#181818;stroke-width:0.5;" x1="142.5" x2="357.0791" y1="971.8906" y2="971.8906"/></g><!--class Si?ge--><g id="elem_Si&#232;ge"><rect codeLine="65" fill="#F1F1F1" height="80.5938" id="Si&#232;ge" rx="2.5" ry="2.5" style="stroke:#181818;stroke-width:0.5;" width="219.2178" x="351.5" y="1089"/><ellipse cx="437.4141" cy="1105" fill="#ADD1B2" rx="11" ry="11" style="stroke:#181818;stroke-width:1;"/><path d="M440.3828,1110.6406 Q439.8047,1110.9375 439.1641,1111.0781 Q438.5234,1111.2344 437.8203,1111.2344 Q435.3203,1111.2344 433.9922,1109.5938 Q432.6797,1107.9375 432.6797,1104.8125 Q432.6797,1101.6875 433.9922,1100.0313 Q435.3203,1098.375 437.8203,1098.375 Q438.5234,1098.375 439.1641,1098.5313 Q439.8203,1098.6875 440.3828,1098.9844 L440.3828,1101.7031 Q439.7578,1101.125 439.1641,1100.8594 Q438.5703,1100.5781 437.9453,1100.5781 Q436.6016,1100.5781 435.9141,1101.6563 Q435.2266,1102.7188 435.2266,1104.8125 Q435.2266,1106.9063 435.9141,1107.9844 Q436.6016,1109.0469 437.9453,1109.0469 Q438.5703,1109.0469 439.1641,1108.7813 Q439.7578,1108.5 440.3828,1107.9219 L440.3828,1110.6406 Z " fill="#000000"/><text fill="#000000" font-family="sans-serif" font-size="14" lengthAdjust="spacing" textLength="38.8896" x="457.9141" y="1109.8467">Si&#232;ge</text><line style="stroke:#181818;stroke-width:0.5;" x1="352.5" x2="569.7178" y1="1121" y2="1121"/><ellipse cx="362.5" cy="1134.6484" fill="transparent" rx="3" ry="3" style="stroke:#038048;stroke-width:1;"/><text fill="#000000" font-family="sans-serif" font-size="14" lengthAdjust="spacing" textLength="193.2178" x="371.5" y="1137.9951">numero_siege : String &#171;PK&#187;</text><rect fill="transparent" height="6" style="stroke:#C82930;stroke-width:1;" width="6" x="359.5" y="1147.9453"/><text fill="#000000" font-family="sans-serif" font-size="14" lengthAdjust="spacing" textLength="83.5693" x="371.5" y="1154.292">&#233;tat : String</text><line style="stroke:#181818;stroke-width:0.5;" x1="352.5" x2="569.7178" y1="1161.5938" y2="1161.5938"/></g><!--class Notification--><g id="elem_Notification"><rect codeLine="70" fill="#F1F1F1" height="96.8906" id="Notification" rx="2.5" ry="2.5" style="stroke:#181818;stroke-width:0.5;" width="195.8184" x="7" y="574"/><ellipse cx="60.4946" cy="590" fill="#ADD1B2" rx="11" ry="11" style="stroke:#181818;stroke-width:1;"/><path d="M63.4634,595.6406 Q62.8853,595.9375 62.2446,596.0781 Q61.604,596.2344 60.9009,596.2344 Q58.4009,596.2344 57.0728,594.5938 Q55.7603,592.9375 55.7603,589.8125 Q55.7603,586.6875 57.0728,585.0313 Q58.4009,583.375 60.9009,583.375 Q61.604,583.375 62.2446,583.5313 Q62.9009,583.6875 63.4634,583.9844 L63.4634,586.7031 Q62.8384,586.125 62.2446,585.8594 Q61.6509,585.5781 61.0259,585.5781 Q59.6821,585.5781 58.9946,586.6563 Q58.3071,587.7188 58.3071,589.8125 Q58.3071,591.9063 58.9946,592.9844 Q59.6821,594.0469 61.0259,594.0469 Q61.6509,594.0469 62.2446,593.7813 Q62.8384,593.5 63.4634,592.9219 L63.4634,595.6406 Z " fill="#000000"/><text fill="#000000" font-family="sans-serif" font-size="14" lengthAdjust="spacing" textLength="80.3291" x="80.9946" y="594.8467">Notification</text><line style="stroke:#181818;stroke-width:0.5;" x1="8" x2="201.8184" y1="606" y2="606"/><ellipse cx="18" cy="619.6484" fill="transparent" rx="3" ry="3" style="stroke:#038048;stroke-width:1;"/><text fill="#000000" font-family="sans-serif" font-size="14" lengthAdjust="spacing" textLength="169.8184" x="27" y="622.9951">id_notification : Int &#171;PK&#187;</text><rect fill="transparent" height="6" style="stroke:#C82930;stroke-width:1;" width="6" x="15" y="632.9453"/><text fill="#000000" font-family="sans-serif" font-size="14" lengthAdjust="spacing" textLength="86.6729" x="27" y="639.292">type : String</text><rect fill="transparent" height="6" style="stroke:#C82930;stroke-width:1;" width="6" x="15" y="649.2422"/><text fill="#000000" font-family="sans-serif" font-size="14" lengthAdjust="spacing" textLength="117.1064" x="27" y="655.5889">dateEnvoi : Date</text><line style="stroke:#181818;stroke-width:0.5;" x1="8" x2="201.8184" y1="662.8906" y2="662.8906"/></g><!--reverse link Utilisateur to Client--><g id="link_Utilisateur_Client"><path codeLine="22" d="M574.7752,255.5296 C546.0352,276.1096 529.12,288.23 504.48,305.87 " fill="transparent" id="Utilisateur-backto-Client" style="stroke:#181818;stroke-width:1;"/><polygon fill="transparent" points="589.41,245.05,571.282,250.6514,578.2684,260.4079,589.41,245.05" style="stroke:#181818;stroke-width:1;"/></g><!--reverse link Utilisateur to Administrateur--><g id="link_Utilisateur_Administrateur"><path codeLine="23" d="M667,263.09 C667,327 667,411.71 667,463.09 " fill="transparent" id="Utilisateur-backto-Administrateur" style="stroke:#181818;stroke-width:1;"/><polygon fill="transparent" points="667,245.09,661,263.09,673,263.09,667,245.09" style="stroke:#181818;stroke-width:1;"/></g><!--reverse link Client to Administrateur--><g id="link_Client_Administrateur"><path codeLine="24" d="M529.7124,379.5743 C544.4824,388.7443 544.99,389.62 559,400 C585.42,419.58 613.31,444.09 634.13,463.25 " fill="transparent" id="Client-backto-Administrateur" style="stroke:#181818;stroke-width:1;"/><polygon fill="transparent" points="514.42,370.08,526.5476,384.6718,532.8772,374.4769,514.42,370.08" style="stroke:#181818;stroke-width:1;"/></g><!--reverse link Cinema to Salle--><g id="link_Cinema_Salle"><path codeLine="79" d="M946.9379,80.8479 C925.9579,109.2979 907,143.78 907,187.5 C907,187.5 907,187.5 907,496.5 C907,568.32 892.49,650.5 881.9,700.95 " fill="transparent" id="Cinema-backto-Salle" style="stroke:#181818;stroke-width:1;"/><polygon fill="transparent" points="954.06,71.19,947.2796,73.6449,946.9379,80.8479,953.7183,78.393,954.06,71.19" style="stroke:#181818;stroke-width:1;"/><text fill="#000000" font-family="sans-serif" font-size="13" lengthAdjust="spacing" textLength="8.271" x="939.8639" y="91.426">1</text><text fill="#000000" font-family="sans-serif" font-size="13" lengthAdjust="spacing" textLength="23.0356" x="858.7786" y="689.8023">0..*</text></g><!--reverse link Cinema to Film--><g id="link_Cinema_Film"><path codeLine="80" d="M1030.1234,79.2061 C1060.6434,106.2361 1088,140.37 1088,187.5 C1088,187.5 1088,187.5 1088,932.5 C1088,1053.45 923.3,1101.15 824.87,1118.86 " fill="transparent" id="Cinema-backto-Film" style="stroke:#181818;stroke-width:1;"/><polygon fill="transparent" points="1021.14,71.25,1022.9796,78.2225,1030.1234,79.2061,1028.2837,72.2336,1021.14,71.25" style="stroke:#181818;stroke-width:1;"/><text fill="#000000" font-family="sans-serif" font-size="13" lengthAdjust="spacing" textLength="8.271" x="1020.7791" y="91.4984">1</text><text fill="#000000" font-family="sans-serif" font-size="13" lengthAdjust="spacing" textLength="23.0356" x="833.0571" y="1114.1239">0..*</text></g><!--reverse link Cinema to S?ance--><g id="link_Cinema_S&#233;ance"><path codeLine="81" d="M996.6355,82.3558 C1007.3655,111.8258 1017,146.31 1017,187.5 C1017,187.5 1017,187.5 1017,750.5 C1017,799.33 984.45,842.79 950.63,874.77 " fill="transparent" id="Cinema-backto-S&#233;ance" style="stroke:#181818;stroke-width:1;"/><polygon fill="transparent" points="992.53,71.08,990.8241,78.0864,996.6355,82.3558,998.3414,75.3494,992.53,71.08" style="stroke:#181818;stroke-width:1;"/><text fill="#000000" font-family="sans-serif" font-size="13" lengthAdjust="spacing" textLength="8.271" x="986.2683" y="91.2934">1</text><text fill="#000000" font-family="sans-serif" font-size="13" lengthAdjust="spacing" textLength="23.0356" x="935.3408" y="864.0055">0..*</text></g><!--reverse link Cinema to Utilisateur--><g id="link_Cinema_Utilisateur"><path codeLine="82" d="M912.8251,71.6557 C864.9551,94.2157 806.36,121.83 751.77,147.55 " fill="transparent" id="Cinema-backto-Utilisateur" style="stroke:#181818;stroke-width:1;"/><polygon fill="transparent" points="923.68,66.54,916.5473,65.4795,912.8251,71.6557,919.9578,72.7162,923.68,66.54" style="stroke:#181818;stroke-width:1;"/><text fill="#000000" font-family="sans-serif" font-size="13" lengthAdjust="spacing" textLength="8.271" x="907.5608" y="66.2887">1</text><text fill="#000000" font-family="sans-serif" font-size="13" lengthAdjust="spacing" textLength="23.0356" x="759.1533" y="140.9053">0..*</text></g><!--reverse link Salle to Si?ge--><g id="link_Salle_Si&#232;ge"><path codeLine="85" d="M801.5225,805.6897 C773.4525,828.4097 749.19,848.77 720,875 C639.04,947.76 549.22,1037.95 499.49,1088.78 " fill="transparent" id="Salle-backto-Si&#232;ge" style="stroke:#181818;stroke-width:1;"/><polygon fill="transparent" points="810.85,798.14,803.6697,798.8057,801.5225,805.6897,808.7028,805.024,810.85,798.14" style="stroke:#181818;stroke-width:1;"/><text fill="#000000" font-family="sans-serif" font-size="13" lengthAdjust="spacing" textLength="53.3838" x="721" y="936.0669">contient</text><text fill="#000000" font-family="sans-serif" font-size="13" lengthAdjust="spacing" textLength="8.271" x="793.8136" y="818.1186">1</text><text fill="#000000" font-family="sans-serif" font-size="13" lengthAdjust="spacing" textLength="23.0356" x="480.9451" y="1077.9051">0..*</text></g><!--link Salle to S?ance--><g id="link_Salle_S&#233;ance"><path codeLine="86" d="M872.33,798.26 C872.98,821.8 873.77,850.33 874.45,874.85 " fill="transparent" id="Salle-S&#233;ance" style="stroke:#181818;stroke-width:1;"/><text fill="#000000" font-family="sans-serif" font-size="13" lengthAdjust="spacing" textLength="68.0469" x="874" y="841.0669">aLieuDans</text><text fill="#000000" font-family="sans-serif" font-size="13" lengthAdjust="spacing" textLength="8.271" x="863.9566" y="817.9031">1</text><text fill="#000000" font-family="sans-serif" font-size="13" lengthAdjust="spacing" textLength="23.0356" x="849.8764" y="864.0953">0..*</text></g><!--link Client to R?servation--><g id="link_Client_R&#233;servation"><path codeLine="89" d="M474.48,370.45 C482.8,391.65 492.69,420.47 497,447 C503.91,489.55 504.54,501.55 497,544 C487.11,599.66 463.2,660.06 445.01,700.67 " fill="transparent" id="Client-R&#233;servation" style="stroke:#181818;stroke-width:1;"/><text fill="#000000" font-family="sans-serif" font-size="13" lengthAdjust="spacing" textLength="8.271" x="468.4182" y="390.3659">1</text><text fill="#000000" font-family="sans-serif" font-size="13" lengthAdjust="spacing" textLength="23.0356" x="423.645" y="689.8325">0..*</text></g><!--link R?servation to Film--><g id="link_R&#233;servation_Film"><path codeLine="90" d="M418.33,798.26 C416.27,860.88 422.54,970.34 483,1035 C516.15,1070.45 541.97,1049.6 588,1065 C618.85,1075.32 652.45,1087.98 681.22,1099.28 " fill="transparent" id="R&#233;servation-Film" style="stroke:#181818;stroke-width:1;"/><text fill="#000000" font-family="sans-serif" font-size="13" lengthAdjust="spacing" textLength="8.271" x="665.3968" y="1092.4389">1</text></g><!--link Client to Paiement--><g id="link_Client_Paiement"><path codeLine="93" d="M446.4,370.09 C436.08,392.07 422.06,421.95 410.34,446.91 " fill="transparent" id="Client-Paiement" style="stroke:#181818;stroke-width:1;"/><text fill="#000000" font-family="sans-serif" font-size="13" lengthAdjust="spacing" textLength="8.271" x="434.639" y="390.3054">1</text><text fill="#000000" font-family="sans-serif" font-size="13" lengthAdjust="spacing" textLength="23.0356" x="388.89" y="436.1063">0..*</text></g><!--link Paiement to R?servation--><g id="link_Paiement_R&#233;servation"><path codeLine="94" d="M394.44,544.2 C400.5,589.14 409.54,656.12 415.59,701 " fill="transparent" id="Paiement-R&#233;servation" style="stroke:#181818;stroke-width:1;"/><text fill="#000000" font-family="sans-serif" font-size="13" lengthAdjust="spacing" textLength="8.271" x="406.0954" y="689.8597">1</text></g><!--link R?servation to Billet--><g id="link_R&#233;servation_Billet"><path codeLine="97" d="M376.36,798.26 C351.38,824.41 324.6644,852.3613 299.7044,878.4913 " fill="transparent" id="R&#233;servation-to-Billet" style="stroke:#181818;stroke-width:1;"/><polygon fill="#181818" points="295.56,882.83,304.669,879.0849,299.0137,879.2144,298.8841,873.5591,295.56,882.83" style="stroke:#181818;stroke-width:1;"/><text fill="#000000" font-family="sans-serif" font-size="13" lengthAdjust="spacing" textLength="45.8301" x="348" y="841.0669">g&#233;n&#232;re</text><text fill="#000000" font-family="sans-serif" font-size="13" lengthAdjust="spacing" textLength="23.0356" x="277.3818" y="872.015">1..*</text></g><!--link R?servation to S?ance--><g id="link_R&#233;servation_S&#233;ance"><path codeLine="98" d="M494.16,798.19 C525.84,818.34 559.7,838.63 577,845 C656.4,874.24 684.44,849.11 765,875 C774.03,877.9 777.7154,879.0757 786.7654,882.9557 " fill="transparent" id="R&#233;servation-to-S&#233;ance" style="stroke:#181818;stroke-width:1;"/><polygon fill="#181818" points="792.28,885.32,785.5843,878.0973,787.6845,883.3498,782.432,885.45,792.28,885.32" style="stroke:#181818;stroke-width:1;"/><text fill="#000000" font-family="sans-serif" font-size="13" lengthAdjust="spacing" textLength="60.0679" x="578" y="841.0669">concerne</text><text fill="#000000" font-family="sans-serif" font-size="13" lengthAdjust="spacing" textLength="8.271" x="776.2169" y="893.8186">1</text></g><!--link Billet to Client--><g id="link_Billet_Client"><path codeLine="99" d="M247.21,882.73 C241.81,775.42 234.05,519.05 278,447 C301.53,408.42 338.9661,384.4646 377.3261,367.4346 " fill="transparent" id="Billet-to-Client" style="stroke:#181818;stroke-width:1;"/><polygon fill="#181818" points="382.81,365,372.9611,364.9959,378.2401,367.0288,376.2072,372.3078,382.81,365" style="stroke:#181818;stroke-width:1;"/><text fill="#000000" font-family="sans-serif" font-size="13" lengthAdjust="spacing" textLength="81.2373" x="250" y="627.0669">estUtilis&#233;Par</text><text fill="#000000" font-family="sans-serif" font-size="13" lengthAdjust="spacing" textLength="8.271" x="366.7554" y="363.9784">1</text></g><!--link Billet to Si?ge--><g id="link_Billet_Si&#232;ge"><path codeLine="100" d="M293.28,980.06 C309.95,997.76 329.44,1017.72 348,1035 C367.85,1053.48 386.0827,1068.9772 406.0527,1085.1972 " fill="transparent" id="Billet-to-Si&#232;ge" style="stroke:#181818;stroke-width:1;"/><polygon fill="#181818" points="410.71,1088.98,406.2459,1080.201,406.8289,1085.8277,401.2022,1086.4107,410.71,1088.98" style="stroke:#181818;stroke-width:1;"/><text fill="#000000" font-family="sans-serif" font-size="13" lengthAdjust="spacing" textLength="53.3838" x="349" y="1031.0669">contient</text><text fill="#000000" font-family="sans-serif" font-size="13" lengthAdjust="spacing" textLength="23.0356" x="377.0742" y="1077.8398">1..*</text></g><!--link S?ance to Film--><g id="link_S&#233;ance_Film"><path codeLine="103" d="M841.08,988.14 C826.1,1012.02 811.6883,1034.9772 796.1883,1059.6872 " fill="transparent" id="S&#233;ance-to-Film" style="stroke:#181818;stroke-width:1;"/><polygon fill="#181818" points="793,1064.77,801.171,1059.2714,795.6569,1060.5343,794.3939,1055.0203,793,1064.77" style="stroke:#181818;stroke-width:1;"/><text fill="#000000" font-family="sans-serif" font-size="13" lengthAdjust="spacing" textLength="51.3525" x="822" y="1031.0669">projette</text><text fill="#000000" font-family="sans-serif" font-size="13" lengthAdjust="spacing" textLength="8.271" x="788.9286" y="1053.9175">1</text></g><!--link Client to Notification--><g id="link_Client_Notification"><path codeLine="104" d="M382.7,347.13 C309.69,356.22 207.71,373.28 178,400 C128.47,444.53 113.0538,517.3205 107.9338,567.9405 " fill="transparent" id="Client-to-Notification" style="stroke:#181818;stroke-width:1;"/><polygon fill="#181818" points="107.33,573.91,112.2154,565.3582,107.8332,568.9354,104.256,564.5532,107.33,573.91" style="stroke:#181818;stroke-width:1;"/><text fill="#000000" font-family="sans-serif" font-size="13" lengthAdjust="spacing" textLength="37.1528" x="179" y="413.0669">re&#231;oit</text><text fill="#000000" font-family="sans-serif" font-size="13" lengthAdjust="spacing" textLength="23.0356" x="83.0557" y="563.1063">0..*</text></g><!--link Notification to Billet--><g id="link_Notification_Billet"><path codeLine="105" d="M120.86,671.05 C133.3,706.65 151.84,756.2 172,798 C185.97,826.97 200.9225,852.9218 216.1725,877.6718 " fill="transparent" id="Notification-to-Billet" style="stroke:#181818;stroke-width:1;"/><polygon fill="#181818" points="219.32,882.78,218.0043,873.0194,216.6971,878.5232,211.1934,877.216,219.32,882.78" style="stroke:#181818;stroke-width:1;"/><text fill="#000000" font-family="sans-serif" font-size="13" lengthAdjust="spacing" textLength="43.4941" x="173" y="754.0669">envoie</text><text fill="#000000" font-family="sans-serif" font-size="13" lengthAdjust="spacing" textLength="24.8066" x="189.4044" y="871.958">0..1</text></g><!--link Administrateur to Film--><g id="link_Administrateur_Film"><path codeLine="108" d="M655.38,527.71 C630.09,594.92 569.74,751.08 538,798 C527.43,813.62 515.22,810.58 508,828 C505.11,834.98 505.94,837.73 508,845 C535.42,941.86 614.5682,1021.4082 676.5682,1072.1882 " fill="transparent" id="Administrateur-to-Film" style="stroke:#181818;stroke-width:1;"/><polygon fill="#181818" points="681.21,1075.99,676.7818,1067.1928,677.3418,1072.8218,671.7128,1073.3819,681.21,1075.99" style="stroke:#181818;stroke-width:1;"/><text fill="#000000" font-family="sans-serif" font-size="13" lengthAdjust="spacing" textLength="29.5928" x="509" y="841.0669">g&#232;re</text><text fill="#000000" font-family="sans-serif" font-size="13" lengthAdjust="spacing" textLength="23.0356" x="650.5133" y="1067.4163">0..*</text></g><!--link Administrateur to Salle--><g id="link_Administrateur_Salle"><path codeLine="109" d="M692.22,527.65 C727.29,570.98 787.3348,645.1465 828.4748,695.9665 " fill="transparent" id="Administrateur-to-Salle" style="stroke:#181818;stroke-width:1;"/><polygon fill="#181818" points="832.25,700.63,829.6962,691.118,829.104,696.7438,823.4782,696.1516,832.25,700.63" style="stroke:#181818;stroke-width:1;"/><text fill="#000000" font-family="sans-serif" font-size="13" lengthAdjust="spacing" textLength="29.5928" x="806" y="627.0669">g&#232;re</text><text fill="#000000" font-family="sans-serif" font-size="13" lengthAdjust="spacing" textLength="23.0356" x="802.1517" y="689.7869">0..*</text></g><!--link Administrateur to S?ance--><g id="link_Administrateur_S&#233;ance"><path codeLine="110" d="M660.18,527.6 C649.31,585.17 633.9,710.45 683,798 C696.05,821.26 741.3168,852.3935 787.3368,880.2435 " fill="transparent" id="Administrateur-to-S&#233;ance" style="stroke:#181818;stroke-width:1;"/><polygon fill="#181818" points="792.47,883.35,786.8412,875.2682,788.1923,880.7613,782.6992,882.1124,792.47,883.35" style="stroke:#181818;stroke-width:1;"/><text fill="#000000" font-family="sans-serif" font-size="13" lengthAdjust="spacing" textLength="76.4385" x="684" y="754.0669">programme</text><text fill="#000000" font-family="sans-serif" font-size="13" lengthAdjust="spacing" textLength="23.0356" x="761.6118" y="875.8061">0..*</text></g><!--SRC=[ZLNRQjmm47ttLuXz2RH9Q5wN44Yo3PIMiDsqVLqKU-Ago9AHv41f-psDlyC_rj5jRTdQjX0sQAvdpbnyGZP3_yG4CqmAKe4c9QTQu_zMCL6obdBGHU64v9O9Q2ZvKH3ocWZPa3LvC6XM5x-AWZvgesXfV03osJ3ED3NGAUTmbZfOGQk6VY7418odeaQQ3MmjgYHXmCGP21CmiMfV-lUQlCFVoylj-wkhqVYwQh1KY_E0opbHAr_uJ4ku_7bs5d8jvMdO8a3AgGAEEyQRCVkJVIN9RTM66GKf4JM8kQZga4Jmtaw0JzqrGv-XQeSgKC_KjVgGNS4eN82e4FOkCTYWnAcqeQOpcJHRog19Uj96oI9-8uMXJd779JL_3_n0EOSuVLq3Idh98kfYg4hQqf8PnuebQWmvz5IKC4BLuDvP8gRLVyLkMi4drdW1fwBkSWDwmn2ZIM3l7xqi6ayJbRA2ZxlPJcZpXN9MsV0tKl89VZQyr2adUysWXcpieKTgCn3lfM5Fh9mDXfXAb-FvlPsF8dBpLZnB5dd2-2Ta1zn5q0G702dZuucnwkiQ1xQcX-ipz7pexQneZ8TEs5v_TOfmV5ONAo9niLPlpizVhS9C756wDJlc63f_H3tTyLmPFY_sa7Ru74loydaktwKrDbSOTq96ioMYDQ4V67GRB3-NELmNJ3tTvtXqqf29HRB-rkR2CvHBSjZX_qeJhOk3MmYVk6RIJFMdSLFmBr0nXto5GLt2cxW_DNv1XXULjPmoYiINe0GKmJDQtCQl1QwOR_dGRwbApOxqC3SLFk6fu_NKLZ9ThIBYYTdl_E5lbVm61XSce75gp-nzkeCAXj-IcI8HH_EB2IzWzn1o46UVGBIkiVQuVcXZpwGkPcOJI05qxMW_RXPFyp_j3Zr26cf5cmR-0000]--></g></svg>