<svg xmlns="http://www.w3.org/2000/svg" xmlns:xlink="http://www.w3.org/1999/xlink" contentStyleType="text/css" data-diagram-type="SEQUENCE" height="916px" preserveAspectRatio="none" style="width:1674px;height:916px;background:#FFFFFF;" version="1.1" viewBox="0 0 1674 916" width="1674px" zoomAndPan="magnify"><defs/><g><rect fill="transparent" height="633.3984" style="stroke:#000000;stroke-width:1.5;" width="1657.9351" x="10" y="185.6953"/><rect fill="transparent" height="441.7969" style="stroke:#000000;stroke-width:1.5;" width="1637.9351" x="20" y="370.2969"/><rect fill="transparent" height="46.2656" style="stroke:#000000;stroke-width:1.5;" width="375.6055" x="1272.3296" y="540.0938"/><g><title>Administrateur</title><rect fill="transparent" height="754.7969" width="8" x="81.3018" y="81.2969"/><line style="stroke:#181818;stroke-width:0.5;stroke-dasharray:5.0,5.0;" x1="85" x2="85" y1="81.2969" y2="836.0938"/></g><g><title>InterfaceAdmin</title><rect fill="transparent" height="754.7969" width="8" x="479.0137" y="81.2969"/><line style="stroke:#181818;stroke-width:0.5;stroke-dasharray:5.0,5.0;" x1="482.2422" x2="482.2422" y1="81.2969" y2="836.0938"/></g><g><title>Contr&#244;leurFilm</title><rect fill="transparent" height="754.7969" width="8" x="671.2583" y="81.2969"/><line style="stroke:#181818;stroke-width:0.5;stroke-dasharray:5.0,5.0;" x1="674.4453" x2="674.4453" y1="81.2969" y2="836.0938"/></g><g><title>ServiceFilm</title><rect fill="transparent" height="754.7969" width="8" x="1005.646" y="81.2969"/><line style="stroke:#181818;stroke-width:0.5;stroke-dasharray:5.0,5.0;" x1="1009.0405" x2="1009.0405" y1="81.2969" y2="836.0938"/></g><g><title>BaseDeDonn&#233;es</title><rect fill="transparent" height="754.7969" width="8" x="1203.7813" y="81.2969"/><line style="stroke:#181818;stroke-width:0.5;stroke-dasharray:5.0,5.0;" x1="1207.2329" x2="1207.2329" y1="81.2969" y2="836.0938"/></g><g><title>ServiceNotification</title><rect fill="transparent" height="754.7969" width="8" x="1351.3647" y="81.2969"/><line style="stroke:#181818;stroke-width:0.5;stroke-dasharray:5.0,5.0;" x1="1355.3296" x2="1355.3296" y1="81.2969" y2="836.0938"/></g><g><title>BaseUtilisateurs</title><rect fill="transparent" height="754.7969" width="8" x="1570.2378" y="81.2969"/><line style="stroke:#181818;stroke-width:0.5;stroke-dasharray:5.0,5.0;" x1="1573.5405" x2="1573.5405" y1="81.2969" y2="836.0938"/></g><text fill="#000000" font-family="sans-serif" font-size="14" lengthAdjust="spacing" textLength="104.6035" x="30" y="77.9951">Administrateur</text><ellipse cx="85.3018" cy="13.5" fill="#E2E2F0" rx="8" ry="8" style="stroke:#181818;stroke-width:0.5;"/><path d="M85.3018,21.5 L85.3018,48.5 M72.3018,29.5 L98.3018,29.5 M85.3018,48.5 L72.3018,63.5 M85.3018,48.5 L98.3018,63.5 " fill="transparent" style="stroke:#181818;stroke-width:0.5;"/><text fill="#000000" font-family="sans-serif" font-size="14" lengthAdjust="spacing" textLength="104.6035" x="30" y="848.0889">Administrateur</text><ellipse cx="85.3018" cy="859.8906" fill="#E2E2F0" rx="8" ry="8" style="stroke:#181818;stroke-width:0.5;"/><path d="M85.3018,867.8906 L85.3018,894.8906 M72.3018,875.8906 L98.3018,875.8906 M85.3018,894.8906 L72.3018,909.8906 M85.3018,894.8906 L98.3018,909.8906 " fill="transparent" style="stroke:#181818;stroke-width:0.5;"/><rect fill="#E2E2F0" height="30.2969" rx="2.5" ry="2.5" style="stroke:#181818;stroke-width:0.5;" width="121.543" x="422.2422" y="50"/><text fill="#000000" font-family="sans-serif" font-size="14" lengthAdjust="spacing" textLength="107.543" x="429.2422" y="69.9951">InterfaceAdmin</text><rect fill="#E2E2F0" height="30.2969" rx="2.5" ry="2.5" style="stroke:#181818;stroke-width:0.5;" width="121.543" x="422.2422" y="835.0938"/><text fill="#000000" font-family="sans-serif" font-size="14" lengthAdjust="spacing" textLength="107.543" x="429.2422" y="855.0889">InterfaceAdmin</text><rect fill="#E2E2F0" height="30.2969" rx="2.5" ry="2.5" style="stroke:#181818;stroke-width:0.5;" width="117.626" x="616.4453" y="50"/><text fill="#000000" font-family="sans-serif" font-size="14" lengthAdjust="spacing" textLength="103.626" x="623.4453" y="69.9951">Contr&#244;leurFilm</text><rect fill="#E2E2F0" height="30.2969" rx="2.5" ry="2.5" style="stroke:#181818;stroke-width:0.5;" width="117.626" x="616.4453" y="835.0938"/><text fill="#000000" font-family="sans-serif" font-size="14" lengthAdjust="spacing" textLength="103.626" x="623.4453" y="855.0889">Contr&#244;leurFilm</text><rect fill="#E2E2F0" height="30.2969" rx="2.5" ry="2.5" style="stroke:#181818;stroke-width:0.5;" width="95.2109" x="962.0405" y="50"/><text fill="#000000" font-family="sans-serif" font-size="14" lengthAdjust="spacing" textLength="81.2109" x="969.0405" y="69.9951">ServiceFilm</text><rect fill="#E2E2F0" height="30.2969" rx="2.5" ry="2.5" style="stroke:#181818;stroke-width:0.5;" width="95.2109" x="962.0405" y="835.0938"/><text fill="#000000" font-family="sans-serif" font-size="14" lengthAdjust="spacing" textLength="81.2109" x="969.0405" y="855.0889">ServiceFilm</text><rect fill="#E2E2F0" height="30.2969" rx="2.5" ry="2.5" style="stroke:#181818;stroke-width:0.5;" width="129.0967" x="1143.2329" y="50"/><text fill="#000000" font-family="sans-serif" font-size="14" lengthAdjust="spacing" textLength="115.0967" x="1150.2329" y="69.9951">BaseDeDonn&#233;es</text><rect fill="#E2E2F0" height="30.2969" rx="2.5" ry="2.5" style="stroke:#181818;stroke-width:0.5;" width="129.0967" x="1143.2329" y="835.0938"/><text fill="#000000" font-family="sans-serif" font-size="14" lengthAdjust="spacing" textLength="115.0967" x="1150.2329" y="855.0889">BaseDeDonn&#233;es</text><rect fill="#E2E2F0" height="30.2969" rx="2.5" ry="2.5" style="stroke:#181818;stroke-width:0.5;" width="146.0703" x="1282.3296" y="50"/><text fill="#000000" font-family="sans-serif" font-size="14" lengthAdjust="spacing" textLength="132.0703" x="1289.3296" y="69.9951">ServiceNotification</text><rect fill="#E2E2F0" height="30.2969" rx="2.5" ry="2.5" style="stroke:#181818;stroke-width:0.5;" width="146.0703" x="1282.3296" y="835.0938"/><text fill="#000000" font-family="sans-serif" font-size="14" lengthAdjust="spacing" textLength="132.0703" x="1289.3296" y="855.0889">ServiceNotification</text><rect fill="#E2E2F0" height="30.2969" rx="2.5" ry="2.5" style="stroke:#181818;stroke-width:0.5;" width="127.3945" x="1510.5405" y="50"/><text fill="#000000" font-family="sans-serif" font-size="14" lengthAdjust="spacing" textLength="113.3945" x="1517.5405" y="69.9951">BaseUtilisateurs</text><rect fill="#E2E2F0" height="30.2969" rx="2.5" ry="2.5" style="stroke:#181818;stroke-width:0.5;" width="127.3945" x="1510.5405" y="835.0938"/><text fill="#000000" font-family="sans-serif" font-size="14" lengthAdjust="spacing" textLength="113.3945" x="1517.5405" y="855.0889">BaseUtilisateurs</text><polygon fill="#181818" points="471.0137,108.4297,481.0137,112.4297,471.0137,116.4297,475.0137,112.4297" style="stroke:#181818;stroke-width:1;"/><line style="stroke:#181818;stroke-width:1;" x1="85.3018" x2="477.0137" y1="112.4297" y2="112.4297"/><text fill="#000000" font-family="sans-serif" font-size="13" lengthAdjust="spacing" textLength="373.7119" x="92.3018" y="107.3638">saisir donn&#233;es film (titre, dur&#233;e, genre, r&#233;alisateur, code)</text><polygon fill="#181818" points="663.2583,137.5625,673.2583,141.5625,663.2583,145.5625,667.2583,141.5625" style="stroke:#181818;stroke-width:1;"/><line style="stroke:#181818;stroke-width:1;" x1="483.0137" x2="669.2583" y1="141.5625" y2="141.5625"/><text fill="#000000" font-family="sans-serif" font-size="13" lengthAdjust="spacing" textLength="156.2222" x="490.0137" y="136.4966">soumettre nouveau film</text><polygon fill="#181818" points="997.646,166.6953,1007.646,170.6953,997.646,174.6953,1001.646,170.6953" style="stroke:#181818;stroke-width:1;"/><line style="stroke:#181818;stroke-width:1;" x1="675.2583" x2="1003.646" y1="170.6953" y2="170.6953"/><text fill="#000000" font-family="sans-serif" font-size="13" lengthAdjust="spacing" textLength="140.645" x="682.2583" y="165.6294">valider et ajouter film</text><path d="M10,185.6953 L74.4429,185.6953 L74.4429,192.8281 L64.4429,202.8281 L10,202.8281 L10,185.6953 " fill="#EEEEEE" style="stroke:#000000;stroke-width:1.5;"/><rect fill="transparent" height="633.3984" style="stroke:#000000;stroke-width:1.5;" width="1657.9351" x="10" y="185.6953"/><text fill="#000000" font-family="sans-serif" font-size="13" font-weight="bold" lengthAdjust="spacing" textLength="19.4429" x="25" y="198.7622">alt</text><text fill="#000000" font-family="sans-serif" font-size="11" font-weight="bold" lengthAdjust="spacing" textLength="194.4121" x="89.4429" y="197.9058">[Pr&#233;conditions non respect&#233;es]</text><polygon fill="#181818" points="686.2583,219.9609,676.2583,223.9609,686.2583,227.9609,682.2583,223.9609" style="stroke:#181818;stroke-width:1;"/><line style="stroke:#181818;stroke-width:1;" x1="680.2583" x2="1008.646" y1="223.9609" y2="223.9609"/><text fill="#000000" font-family="sans-serif" font-size="13" lengthAdjust="spacing" textLength="310.3877" x="692.2583" y="218.895">erreur de validation (champ vide ou mal form&#233;)</text><polygon fill="#181818" points="494.0137,249.0938,484.0137,253.0938,494.0137,257.0938,490.0137,253.0938" style="stroke:#181818;stroke-width:1;"/><line style="stroke:#181818;stroke-width:1;" x1="488.0137" x2="674.2583" y1="253.0938" y2="253.0938"/><text fill="#000000" font-family="sans-serif" font-size="13" lengthAdjust="spacing" textLength="168.2446" x="500.0137" y="248.0278">afficher message d'erreur</text><polygon fill="#181818" points="96.3018,278.2266,86.3018,282.2266,96.3018,286.2266,92.3018,282.2266" style="stroke:#181818;stroke-width:1;"/><line style="stroke:#181818;stroke-width:1;" x1="90.3018" x2="482.0137" y1="282.2266" y2="282.2266"/><text fill="#000000" font-family="sans-serif" font-size="13" lengthAdjust="spacing" textLength="104.127" x="102.3018" y="277.1606">&#233;chec ajout film</text><line style="stroke:#000000;stroke-width:1;stroke-dasharray:2.0,2.0;" x1="10" x2="1667.9351" y1="291.2266" y2="291.2266"/><text fill="#000000" font-family="sans-serif" font-size="11" font-weight="bold" lengthAdjust="spacing" textLength="117.2241" x="15" y="301.437">[Pr&#233;conditions OK]</text><polygon fill="#181818" points="1195.7813,322.1641,1205.7813,326.1641,1195.7813,330.1641,1199.7813,326.1641" style="stroke:#181818;stroke-width:1;"/><line style="stroke:#181818;stroke-width:1;" x1="1009.646" x2="1201.7813" y1="326.1641" y2="326.1641"/><text fill="#000000" font-family="sans-serif" font-size="13" lengthAdjust="spacing" textLength="174.1353" x="1016.646" y="321.0981">v&#233;rifier doublon (par code)</text><polygon fill="#181818" points="1020.646,351.2969,1010.646,355.2969,1020.646,359.2969,1016.646,355.2969" style="stroke:#181818;stroke-width:1;"/><line style="stroke:#181818;stroke-width:1;stroke-dasharray:2.0,2.0;" x1="1014.646" x2="1206.7813" y1="355.2969" y2="355.2969"/><text fill="#000000" font-family="sans-serif" font-size="13" lengthAdjust="spacing" textLength="137.3062" x="1026.646" y="350.231">film existant ? (false)</text><path d="M20,370.2969 L84.4429,370.2969 L84.4429,377.4297 L74.4429,387.4297 L20,387.4297 L20,370.2969 " fill="#EEEEEE" style="stroke:#000000;stroke-width:1.5;"/><rect fill="transparent" height="441.7969" style="stroke:#000000;stroke-width:1.5;" width="1637.9351" x="20" y="370.2969"/><text fill="#000000" font-family="sans-serif" font-size="13" font-weight="bold" lengthAdjust="spacing" textLength="19.4429" x="35" y="383.3638">alt</text><text fill="#000000" font-family="sans-serif" font-size="11" font-weight="bold" lengthAdjust="spacing" textLength="102.647" x="99.4429" y="382.5073">[Film inexistant]</text><polygon fill="#181818" points="1195.7813,404.5625,1205.7813,408.5625,1195.7813,412.5625,1199.7813,408.5625" style="stroke:#181818;stroke-width:1;"/><line style="stroke:#181818;stroke-width:1;" x1="1009.646" x2="1201.7813" y1="408.5625" y2="408.5625"/><text fill="#000000" font-family="sans-serif" font-size="13" lengthAdjust="spacing" textLength="73.9058" x="1016.646" y="403.4966">ins&#233;rer film</text><polygon fill="#181818" points="1020.646,433.6953,1010.646,437.6953,1020.646,441.6953,1016.646,437.6953" style="stroke:#181818;stroke-width:1;"/><line style="stroke:#181818;stroke-width:1;stroke-dasharray:2.0,2.0;" x1="1014.646" x2="1206.7813" y1="437.6953" y2="437.6953"/><text fill="#000000" font-family="sans-serif" font-size="13" lengthAdjust="spacing" textLength="143.4063" x="1026.646" y="432.6294">confirmation insertion</text><polygon fill="#181818" points="1343.3647,462.8281,1353.3647,466.8281,1343.3647,470.8281,1347.3647,466.8281" style="stroke:#181818;stroke-width:1;"/><line style="stroke:#181818;stroke-width:1;" x1="1009.646" x2="1349.3647" y1="466.8281" y2="466.8281"/><text fill="#000000" font-family="sans-serif" font-size="13" lengthAdjust="spacing" textLength="210.2725" x="1016.646" y="461.7622">cr&#233;er notification (nouveau film)</text><polygon fill="#181818" points="1562.2378,491.9609,1572.2378,495.9609,1562.2378,499.9609,1566.2378,495.9609" style="stroke:#181818;stroke-width:1;"/><line style="stroke:#181818;stroke-width:1;" x1="1355.3647" x2="1568.2378" y1="495.9609" y2="495.9609"/><text fill="#000000" font-family="sans-serif" font-size="13" lengthAdjust="spacing" textLength="194.873" x="1362.3647" y="490.895">r&#233;cup&#233;rer tous les utilisateurs</text><polygon fill="#181818" points="1366.3647,521.0938,1356.3647,525.0938,1366.3647,529.0938,1362.3647,525.0938" style="stroke:#181818;stroke-width:1;"/><line style="stroke:#181818;stroke-width:1;stroke-dasharray:2.0,2.0;" x1="1360.3647" x2="1573.2378" y1="525.0938" y2="525.0938"/><text fill="#000000" font-family="sans-serif" font-size="13" lengthAdjust="spacing" textLength="103.5874" x="1372.3647" y="520.0278">liste utilisateurs</text><path d="M1272.3296,540.0938 L1348.9536,540.0938 L1348.9536,547.2266 L1338.9536,557.2266 L1272.3296,557.2266 L1272.3296,540.0938 " fill="#EEEEEE" style="stroke:#000000;stroke-width:1.5;"/><rect fill="transparent" height="46.2656" style="stroke:#000000;stroke-width:1.5;" width="375.6055" x="1272.3296" y="540.0938"/><text fill="#000000" font-family="sans-serif" font-size="13" font-weight="bold" lengthAdjust="spacing" textLength="31.624" x="1287.3296" y="553.1606">loop</text><text fill="#000000" font-family="sans-serif" font-size="11" font-weight="bold" lengthAdjust="spacing" textLength="155.6865" x="1363.9536" y="552.3042">[pour chaque utilisateur]</text><polygon fill="#181818" points="1562.2378,574.3594,1572.2378,578.3594,1562.2378,582.3594,1566.2378,578.3594" style="stroke:#181818;stroke-width:1;"/><line style="stroke:#181818;stroke-width:1;" x1="1355.3647" x2="1568.2378" y1="578.3594" y2="578.3594"/><text fill="#000000" font-family="sans-serif" font-size="13" lengthAdjust="spacing" textLength="149.2397" x="1362.3647" y="573.2935">enregistrer notification</text><polygon fill="#181818" points="1020.646,610.4922,1010.646,614.4922,1020.646,618.4922,1016.646,614.4922" style="stroke:#181818;stroke-width:1;"/><line style="stroke:#181818;stroke-width:1;stroke-dasharray:2.0,2.0;" x1="1014.646" x2="1354.3647" y1="614.4922" y2="614.4922"/><text fill="#000000" font-family="sans-serif" font-size="13" lengthAdjust="spacing" textLength="146.3579" x="1026.646" y="609.4263">notifications envoy&#233;es</text><polygon fill="#181818" points="686.2583,639.625,676.2583,643.625,686.2583,647.625,682.2583,643.625" style="stroke:#181818;stroke-width:1;"/><line style="stroke:#181818;stroke-width:1;" x1="680.2583" x2="1008.646" y1="643.625" y2="643.625"/><text fill="#000000" font-family="sans-serif" font-size="13" lengthAdjust="spacing" textLength="109.6748" x="692.2583" y="638.5591">succ&#232;s ajout film</text><polygon fill="#181818" points="494.0137,668.7578,484.0137,672.7578,494.0137,676.7578,490.0137,672.7578" style="stroke:#181818;stroke-width:1;"/><line style="stroke:#181818;stroke-width:1;" x1="488.0137" x2="674.2583" y1="672.7578" y2="672.7578"/><text fill="#000000" font-family="sans-serif" font-size="13" lengthAdjust="spacing" textLength="160.2275" x="500.0137" y="667.6919">afficher message succ&#232;s</text><polygon fill="#181818" points="96.3018,697.8906,86.3018,701.8906,96.3018,705.8906,92.3018,701.8906" style="stroke:#181818;stroke-width:1;"/><line style="stroke:#181818;stroke-width:1;" x1="90.3018" x2="482.0137" y1="701.8906" y2="701.8906"/><text fill="#000000" font-family="sans-serif" font-size="13" lengthAdjust="spacing" textLength="234.9775" x="102.3018" y="696.8247">film ajout&#233; + notifications envoy&#233;es</text><line style="stroke:#000000;stroke-width:1;stroke-dasharray:2.0,2.0;" x1="20" x2="1657.9351" y1="710.8906" y2="710.8906"/><text fill="#000000" font-family="sans-serif" font-size="11" font-weight="bold" lengthAdjust="spacing" textLength="121.4028" x="25" y="721.1011">[Film d&#233;j&#224; existant]</text><polygon fill="#181818" points="686.2583,741.8281,676.2583,745.8281,686.2583,749.8281,682.2583,745.8281" style="stroke:#181818;stroke-width:1;"/><line style="stroke:#181818;stroke-width:1;" x1="680.2583" x2="1008.646" y1="745.8281" y2="745.8281"/><text fill="#000000" font-family="sans-serif" font-size="13" lengthAdjust="spacing" textLength="105.4155" x="692.2583" y="740.7622">erreur : doublon</text><polygon fill="#181818" points="494.0137,770.9609,484.0137,774.9609,494.0137,778.9609,490.0137,774.9609" style="stroke:#181818;stroke-width:1;"/><line style="stroke:#181818;stroke-width:1;" x1="488.0137" x2="674.2583" y1="774.9609" y2="774.9609"/><text fill="#000000" font-family="sans-serif" font-size="13" lengthAdjust="spacing" textLength="156.4189" x="500.0137" y="769.895">afficher message erreur</text><polygon fill="#181818" points="96.3018,800.0938,86.3018,804.0938,96.3018,808.0938,92.3018,804.0938" style="stroke:#181818;stroke-width:1;"/><line style="stroke:#181818;stroke-width:1;" x1="90.3018" x2="482.0137" y1="804.0938" y2="804.0938"/><text fill="#000000" font-family="sans-serif" font-size="13" lengthAdjust="spacing" textLength="98.0269" x="102.3018" y="799.0278">film non ajout&#233;</text><!--SRC=[bLHBZjD04Dtx5ANPa8Za0bc0217I20cGK0xGT9UJ7hMxJNyik0rBlES6lXZLtRR7Tao0aR9mwRrNzQfU3-FUM7WZAgcbyvPv3BQecVMIovff3m-FsgCj6SS4UW3cuFmuXxmrsjlkboBkEwcgX4arenGkv3wZRIJ74TT_pq57vl249wDrrw9BkDDnLUU3yRAKd7bfycpJmgtesKibNNAPPSyEhIFjOhu2sByYbt00nwIJ5aG_2fGqDsoyz1Pt88AbuWukgECdVR11VGVS2DmM949Ipyk8aYPKw4a0j0aDif14Ymc66BqzWZUaAQY87jYJ2NICZ2-Oyl29UdAZXOns7GbgiEXgv3vEMm3z3KhBCT3QQ5HWxf0M1Xj-PLKD3NK44w1Y2afZgwxT9gtvZ6b1hAHjNwbGeNFiWY1UPEL4oFONkpq03Nr5dlraDwWSBjryVByqS3h6XNIjfHDZl4huekBKTET-tv50gFriXUbe-8qcY45u3PkIKRjjaT1nZJ6D8FK0IVMrrb8xQZvSO43Tz2CFfRHLNYbnqAOqhibEungPCL2MxZYfRgOnsOuYCsQyHauoYSGjXZeFwarme2YuOPByKMFWx6yd8R37EMkaAMDgg0sTakBoDSnW8-Z-ZF75N68a5cv7EcfH_C7hRDTJiYDMOxwFqRyNVnSuxtwwQGO7oh-alAS_Rt8zw2bvgKNNmikxmwONa88eklQf-m7tqhZsaW_3U_Wl8vF7-ZSVyRzBxwKOJaI_tm00]--></g></svg>